<svg width="12" height="19" viewBox="0 0 12 19" fill="none" xmlns="http://www.w3.org/2000/svg">
<path d="M0.621094 12.0273C0.761719 11.8867 0.972656 11.7812 1.21875 11.7812C1.42969 11.7812 1.64062 11.8867 1.78125 12.0625L5.15625 15.4023V1.09375C5.15625 0.636719 5.50781 0.25 6 0.25C6.45703 0.25 6.84375 0.636719 6.84375 1.09375V15.4023L10.1836 12.0625C10.5 11.7109 11.0273 11.7109 11.3438 12.0625C11.6953 12.3789 11.6953 12.9062 11.3438 13.2578L6.5625 18.0391C6.24609 18.3555 5.71875 18.3555 5.40234 18.0391L0.621094 13.2578C0.269531 12.9062 0.269531 12.3789 0.621094 12.0273Z" fill="#DADADA"/>
</svg>
