<svg width="14" height="24" viewBox="0 0 14 24" fill="currentColor" xmlns="http://www.w3.org/2000/svg">
<path d="M13.0312 15.5C12.875 15.75 12.625 15.875 12.375 15.875C12.25 15.875 12.125 15.8438 12 15.7812L7.75 13.3125V18.25C7.75 18.6875 7.40625 19 7 19C6.625 19 6.25 18.6875 6.25 18.25V13.3125L1.9375 15.7812C1.84375 15.8438 1.6875 15.875 1.5625 15.875C1.3125 15.875 1.0625 15.75 0.9375 15.5C0.71875 15.1562 0.84375 14.6875 1.1875 14.5L5.5 12L1.1875 9.53125C0.84375 9.34375 0.71875 8.875 0.90625 8.5C1.125 8.15625 1.59375 8.03125 1.9375 8.25L6.25 10.7188V5.75C6.25 5.34375 6.5625 5 7 5C7.40625 5 7.75 5.34375 7.75 5.75V10.7188L12.0312 8.25C12.375 8.03125 12.8438 8.15625 13.0312 8.5C13.2188 8.875 13.0938 9.34375 12.75 9.53125L8.46875 12L12.75 14.5C13.125 14.6875 13.25 15.1562 13.0312 15.5Z"/>
</svg>
