<svg width="16" height="19" viewBox="0 0 16 19" fill="currentColor" xmlns="http://www.w3.org/2000/svg">
<path d="M12.5859 11.8164C13.3242 11.1133 13.8867 10.2344 14.2031 9.25H14.625C14.9062 9.25 15.1875 9.00391 15.1875 8.6875V5.3125C15.1875 5.03125 14.9062 4.75 14.625 4.75H14.2031C13.2891 2.14844 10.793 0.25 7.875 0.25C4.92188 0.25 2.42578 2.14844 1.51172 4.75H1.125C0.808594 4.75 0.5625 5.03125 0.5625 5.3125V8.6875C0.5625 9.00391 0.808594 9.25 1.125 9.25H1.51172C1.86328 10.2344 2.39062 11.1133 3.12891 11.8164C1.30078 12.4844 0 14.207 0 16.2461V17.4062C0 17.8984 0.351562 18.25 0.84375 18.25C1.30078 18.25 1.6875 17.8984 1.6875 17.4062V16.2461C1.6875 14.5586 3.02344 13.1875 4.71094 13.1875H5.16797C5.97656 13.5742 6.89062 13.75 7.875 13.75C8.82422 13.75 9.73828 13.5742 10.5469 13.1875H11.0039C12.6914 13.1875 14.0625 14.5586 14.0625 16.2461V17.4062C14.0625 17.8984 14.4141 18.25 14.9062 18.25C15.3633 18.25 15.75 17.8984 15.75 17.4062V16.2461C15.75 14.207 14.4141 12.4844 12.5859 11.8164ZM7.875 12.0625C5.0625 12.0625 2.8125 9.8125 2.8125 7C2.8125 4.22266 5.0625 1.9375 7.875 1.9375C10.6523 1.9375 12.9375 4.22266 12.9375 7C12.9375 9.8125 10.6523 12.0625 7.875 12.0625ZM10.6875 14.875H5.0625C4.42969 14.875 3.9375 15.4023 3.9375 16V18.25H5.625V16.5625C5.625 16.2812 5.87109 16 6.1875 16C6.46875 16 6.75 16.2812 6.75 16.5625V18.25H11.8125V16C11.8125 15.4023 11.2852 14.875 10.6875 14.875ZM9.5625 17.125C9.24609 17.125 9 16.8789 9 16.5625C9 16.2812 9.24609 16 9.5625 16C9.84375 16 10.125 16.2812 10.125 16.5625C10.125 16.8789 9.84375 17.125 9.5625 17.125ZM10.125 4.75H5.625C4.67578 4.75 3.9375 5.52344 3.9375 6.4375V7C3.9375 8.86328 5.44922 10.375 7.3125 10.375H8.4375C10.3008 10.375 11.8125 8.86328 11.8125 7V6.4375C11.8125 5.52344 11.0391 4.75 10.125 4.75ZM7.17188 7.98438L6.75 9.25L6.32812 7.98438L5.0625 7.5625L6.32812 7.14062L6.75 5.875L7.17188 7.14062L8.4375 7.5625L7.17188 7.98438Z"/>
</svg>
