<svg width="14" height="24" viewBox="0 0 14 24" fill="currentColor" xmlns="http://www.w3.org/2000/svg">
<path d="M12.4062 12C14.0938 14.625 14.5 17.0625 13.2812 18.2812C11.3438 20.1562 7.5625 17.8125 7 17.4688C6.40625 17.8438 2.625 20.2188 0.71875 18.2812C-0.53125 17.0625 -0.125 14.625 1.5625 12C-0.125 9.40625 -0.53125 6.96875 0.6875 5.75C1.9375 4.5 4.375 4.90625 6.96875 6.59375C9.59375 4.90625 12.0312 4.5 13.25 5.75C14.5 6.96875 14.0938 9.40625 12.4062 12ZM2.5 10.6875C3.4375 9.53125 4.5 8.46875 5.65625 7.53125C4.34375 6.78125 2.46875 6.09375 1.75 6.8125C1.25 7.3125 1.4375 8.8125 2.5 10.6875ZM5.65625 16.4688C4.5 15.5625 3.4375 14.5 2.5 13.3438C1.4375 15.2188 1.25 16.6875 1.78125 17.2188C2.28125 17.75 3.78125 17.5625 5.65625 16.4688ZM10.5625 12C9.53125 10.6562 8.3125 9.4375 6.96875 8.40625C5.59375 9.40625 4.375 10.625 3.375 12C4.4375 13.4375 5.5625 14.5625 6.96875 15.5938C8.40625 14.5312 9.53125 13.4375 10.5625 12ZM7.96875 12C7.96875 12.5312 7.5 13 6.96875 13C6.40625 13 5.96875 12.5312 5.96875 12C5.96875 11.4375 6.40625 11 6.96875 11C7.53125 11 7.96875 11.4688 7.96875 12ZM11.4688 13.3438C10.5312 14.5 9.46875 15.5625 8.3125 16.4688C10.1875 17.5625 11.6875 17.75 12.2188 17.2188C12.7188 16.6875 12.5312 15.1875 11.4688 13.3438ZM8.3125 7.53125C9.46875 8.46875 10.5312 9.53125 11.4688 10.6875C12.5312 8.8125 12.7188 7.3125 12.1875 6.8125C11.5 6.09375 9.625 6.78125 8.3125 7.53125Z"/>
</svg>
