<svg width="15" height="19" viewBox="0 0 15 19" fill="currentColor" xmlns="http://www.w3.org/2000/svg">
<path d="M14.1133 10.1289L5.14844 17.9688C4.90234 18.1797 4.62109 18.25 4.375 18.25C4.12891 18.25 3.88281 18.1797 3.70703 18.0391C3.28516 17.7578 3.10938 17.1953 3.32031 16.7031L6.02734 10.375H2.125C1.63281 10.375 1.21094 10.0938 1.07031 9.67188C0.894531 9.21484 1 8.72266 1.35156 8.40625L10.3516 0.566406C10.7383 0.214844 11.3008 0.214844 11.7227 0.53125C12.1797 0.8125 12.3203 1.375 12.1094 1.86719L9.40234 8.16016H13.3398C13.7969 8.16016 14.2188 8.47656 14.3945 8.89844C14.5703 9.32031 14.4648 9.8125 14.1133 10.1289Z"/>
</svg>
