<svg width="17" height="14" viewBox="0 0 17 14" fill="currentColor" xmlns="http://www.w3.org/2000/svg">
<path d="M15.6836 1.69141C14.9727 0.980469 14.0586 0.625 13.1445 0.625C12.2305 0.625 11.3164 0.980469 10.6055 1.69141L9.51367 2.7832C9.89453 2.98633 10.25 3.24023 10.5801 3.54492C10.6562 3.62109 10.7324 3.72266 10.7832 3.79883L11.748 2.83398C12.1289 2.47852 12.6113 2.25 13.1445 2.25C13.6777 2.25 14.1602 2.47852 14.541 2.83398C14.8965 3.21484 15.0996 3.69727 15.0996 4.23047C15.0996 4.76367 14.8965 5.24609 14.541 5.62695L11.1641 9.00391C10.7832 9.35938 10.3008 9.5625 9.76758 9.5625C9.23438 9.5625 8.75195 9.35938 8.37109 9.00391C8.01562 8.62305 7.78711 8.14062 7.78711 7.60742C7.78711 7.07422 7.99023 6.5918 8.3457 6.21094L8.47266 6.13477C8.42188 6.0332 8.3457 5.93164 8.26953 5.85547C8.06641 5.62695 7.76172 5.5 7.45703 5.5C7.15234 5.5 6.87305 5.62695 6.64453 5.83008C5.88281 7.20117 6.06055 8.97852 7.22852 10.1465C7.93945 10.8574 8.85352 11.1875 9.76758 11.1875C10.6816 11.1875 11.5957 10.8574 12.3066 10.1465L15.6836 6.76953C16.4199 6.0332 16.75 5.09375 16.7246 4.12891C16.7246 3.24023 16.3691 2.37695 15.6836 1.69141ZM6.44141 10.4766L5.47656 11.4414C5.0957 11.7969 4.61328 12 4.08008 12C3.54688 12 3.06445 11.7969 2.68359 11.4414C2.32812 11.0605 2.125 10.5781 2.125 10.0449C2.125 9.51172 2.32812 9.0293 2.68359 8.64844L6.06055 5.27148C6.44141 4.89062 6.92383 4.6875 7.45703 4.6875C8.01562 4.6875 8.47266 4.91602 8.85352 5.27148C9.20898 5.65234 9.41211 6.13477 9.41211 6.66797C9.41211 7.20117 9.20898 7.68359 8.85352 8.06445L8.75195 8.14062C8.80273 8.24219 8.87891 8.34375 8.95508 8.41992C9.1582 8.64844 9.46289 8.75 9.76758 8.75C10.0723 8.75 10.3516 8.64844 10.5801 8.44531C11.3418 7.07422 11.1641 5.29688 9.99609 4.12891C9.28516 3.41797 8.37109 3.0625 7.45703 3.0625C6.54297 3.0625 5.62891 3.41797 4.91797 4.12891L1.54102 7.50586C0.830078 8.2168 0.5 9.13086 0.5 10.0449C0.5 10.959 0.830078 11.8984 1.54102 12.584C2.25195 13.2949 3.16602 13.625 4.08008 13.625C4.99414 13.625 5.9082 13.2949 6.61914 12.584L7.71094 11.4922C7.33008 11.2891 6.97461 11.0352 6.64453 10.7305C6.56836 10.6543 6.49219 10.5527 6.44141 10.4766Z"/>
</svg>
