<svg width="21" height="17" viewBox="0 0 21 17" fill="currentColor" xmlns="http://www.w3.org/2000/svg">
<path d="M17.375 2.0625C17.375 1.14844 16.6016 0.375 15.6875 0.375H5.5625C4.61328 0.375 3.875 1.14844 3.875 2.0625V12.75H17.375V2.0625ZM13.7891 5.12109L10.6953 9.05859C10.5547 9.23438 10.3438 9.375 10.1328 9.375C10.0977 9.375 10.0625 9.375 10.0273 9.375C9.81641 9.375 9.60547 9.30469 9.46484 9.16406L7.49609 7.47656C7.17969 7.19531 7.14453 6.66797 7.42578 6.31641C7.74219 5.96484 8.26953 5.92969 8.62109 6.21094L9.92188 7.33594L12.4883 4.10156C12.7695 3.71484 13.2969 3.64453 13.6484 3.96094C14.0352 4.24219 14.1055 4.76953 13.7891 5.12109ZM19.0625 9.375H18.5V13.3125C18.5 13.6289 18.2188 13.875 17.9375 13.875H3.3125C2.99609 13.875 2.75 13.6289 2.75 13.3125V9.375H2.1875C1.23828 9.375 0.5 10.1484 0.5 11.0625V14.4375C0.5 15.3867 1.23828 16.125 2.1875 16.125H19.0625C19.9766 16.125 20.75 15.3867 20.75 14.4375V11.0625C20.75 10.1484 19.9766 9.375 19.0625 9.375Z"/>
</svg>
