<svg width="14" height="19" viewBox="0 0 14 19" fill="currentColor" xmlns="http://www.w3.org/2000/svg">
<path d="M8.61328 8.47656L6.04688 11.7109L4.74609 10.5859C4.39453 10.3047 3.86719 10.3398 3.55078 10.6914C3.26953 11.043 3.30469 11.5703 3.65625 11.8867L5.625 13.5742C5.76562 13.6797 5.97656 13.75 6.1875 13.75C6.1875 13.75 6.22266 13.75 6.25781 13.75C6.46875 13.75 6.67969 13.6094 6.82031 13.4336L9.91406 9.49609C10.2305 9.14453 10.1602 8.61719 9.77344 8.33594C9.42188 8.01953 8.89453 8.08984 8.61328 8.47656ZM11.25 2.5H9.49219C9.21094 1.23438 8.08594 0.25 6.75 0.25C5.37891 0.25 4.25391 1.23438 3.97266 2.5H2.25C0.984375 2.5 0 3.51953 0 4.75V16C0 17.2656 0.984375 18.25 2.25 18.25H11.25C12.4805 18.25 13.5 17.2656 13.5 16V4.75C13.5 3.51953 12.4805 2.5 11.25 2.5ZM6.75 1.9375C7.20703 1.9375 7.59375 2.32422 7.59375 2.78125C7.59375 3.27344 7.20703 3.625 6.75 3.625C6.25781 3.625 5.90625 3.27344 5.90625 2.78125C5.90625 2.32422 6.25781 1.9375 6.75 1.9375ZM11.8125 16C11.8125 16.3164 11.5312 16.5625 11.25 16.5625H2.25C1.93359 16.5625 1.6875 16.3164 1.6875 16V4.75C1.6875 4.46875 1.93359 4.1875 2.25 4.1875H2.88281C2.8125 4.39844 2.8125 4.57422 2.8125 4.75V5.3125C2.8125 5.62891 3.05859 5.875 3.375 5.875H10.125C10.4062 5.875 10.6875 5.62891 10.6875 5.3125V4.75C10.6875 4.57422 10.6523 4.39844 10.582 4.1875H11.25C11.5312 4.1875 11.8125 4.46875 11.8125 4.75V16Z"/>
</svg>
