<svg width="20" height="20" viewBox="0 0 20 20" fill="currentColor" xmlns="http://www.w3.org/2000/svg">
<path d="M15.7758 4.70126C14.7135 4.21384 13.5744 3.85473 12.3833 3.64906C12.3617 3.64509 12.34 3.65501 12.3288 3.67485C12.1823 3.93541 12.02 4.27534 11.9064 4.54253C10.6254 4.35074 9.3509 4.35074 8.09614 4.54253C7.98248 4.2694 7.81431 3.93541 7.66715 3.67485C7.65597 3.65567 7.63431 3.64575 7.61262 3.64906C6.42224 3.85407 5.28311 4.21318 4.22018 4.70126C4.21097 4.70523 4.20309 4.71184 4.19785 4.72044C2.03716 7.94846 1.44525 11.0971 1.73562 14.2068C1.73694 14.222 1.74548 14.2366 1.7573 14.2458C3.18287 15.2927 4.56377 15.9283 5.91903 16.3495C5.94072 16.3562 5.9637 16.3482 5.9775 16.3304C6.29809 15.8926 6.58386 15.431 6.82888 14.9455C6.84334 14.9171 6.82954 14.8833 6.79999 14.8721C6.3467 14.7002 5.91508 14.4905 5.49989 14.2524C5.46705 14.2333 5.46442 14.1863 5.49464 14.1638C5.58201 14.0983 5.6694 14.0302 5.75283 13.9614C5.76792 13.9489 5.78896 13.9462 5.8067 13.9541C8.53431 15.1995 11.4873 15.1995 14.1827 13.9541C14.2004 13.9456 14.2215 13.9482 14.2372 13.9608C14.3207 14.0295 14.408 14.0983 14.4961 14.1638C14.5263 14.1863 14.5243 14.2333 14.4915 14.2524C14.0763 14.4951 13.6447 14.7002 13.1907 14.8714C13.1612 14.8827 13.148 14.9171 13.1625 14.9455C13.4128 15.4303 13.6985 15.8919 14.0132 16.3297C14.0264 16.3482 14.05 16.3562 14.0717 16.3495C15.4335 15.9283 16.8144 15.2927 18.24 14.2458C18.2525 14.2366 18.2603 14.2227 18.2617 14.2075C18.6092 10.6124 17.6796 7.4895 15.7975 4.72109C15.7929 4.71184 15.785 4.70523 15.7758 4.70126ZM7.23621 12.3133C6.41501 12.3133 5.73837 11.5594 5.73837 10.6335C5.73837 9.70764 6.40189 8.95372 7.23621 8.95372C8.07708 8.95372 8.74717 9.71426 8.73403 10.6335C8.73403 11.5594 8.0705 12.3133 7.23621 12.3133ZM12.7742 12.3133C11.953 12.3133 11.2764 11.5594 11.2764 10.6335C11.2764 9.70764 11.9399 8.95372 12.7742 8.95372C13.6151 8.95372 14.2852 9.71426 14.2721 10.6335C14.2721 11.5594 13.6151 12.3133 12.7742 12.3133Z"/>
</svg>
