<svg width="11" height="12" viewBox="0 0 11 12" fill="none" xmlns="http://www.w3.org/2000/svg">
<path d="M6.96094 5.71875C6.96094 5.34375 6.67969 5.03906 6.35156 5.03906C6 5.03906 5.71875 5.34375 5.71875 5.71875C5.71875 6.07031 6 6.375 6.35156 6.375C6.67969 6.375 6.96094 6.07031 6.96094 5.71875ZM4.14844 5.03906C3.82031 5.03906 3.53906 5.34375 3.53906 5.71875C3.53906 6.07031 3.82031 6.375 4.14844 6.375C4.5 6.375 4.75781 6.07031 4.75781 5.71875C4.78125 5.34375 4.5 5.03906 4.14844 5.03906ZM10.5 1.24219C10.5 0.5625 9.9375 0 9.25781 0H1.21875C0.539062 0 0 0.5625 0 1.24219V9.35156C0 10.0547 0.539062 10.5938 1.21875 10.5938H8.01562L7.71094 9.49219C9.46875 11.1094 8.97656 10.6875 10.5 12V1.24219ZM8.78906 6.9375C8.78906 6.9375 8.27344 7.80469 6.9375 7.85156C6.9375 7.85156 6.72656 7.59375 6.53906 7.35938C7.33594 7.14844 7.64062 6.65625 7.64062 6.65625C7.38281 6.82031 7.14844 6.91406 6.9375 7.00781C5.64844 7.54688 4.21875 7.35938 3.1875 6.79688C3.1875 6.77344 3.04688 6.70312 2.95312 6.63281C2.95312 6.63281 3.23438 7.125 4.00781 7.35938C3.82031 7.57031 3.60938 7.85156 3.60938 7.85156C2.27344 7.80469 1.78125 6.9375 1.78125 6.9375C1.78125 4.99219 2.625 3.44531 2.625 3.44531C3.49219 2.78906 4.3125 2.8125 4.3125 2.8125L4.38281 2.88281C3.30469 3.1875 2.8125 3.65625 2.8125 3.65625C2.8125 3.65625 2.92969 3.58594 3.16406 3.49219C4.54688 2.88281 6.21094 2.88281 7.64062 3.65625C7.64062 3.65625 7.17188 3.21094 6.14062 2.90625L6.23438 2.8125C6.23438 2.8125 7.05469 2.78906 7.92188 3.44531C7.92188 3.44531 8.78906 4.99219 8.78906 6.9375Z" fill="white"/>
</svg>
