<svg viewBox="0 0 55 55" fill="none" xmlns="http://www.w3.org/2000/svg">
<circle opacity="0.5" cx="50%" cy="50%" r="50%" fill="#D9EBFC"/>
<path d="M34.1547 13.667H16.377V18.1114H34.1547V13.667Z" stroke="#57A1B0" stroke-width="2" stroke-linecap="round" stroke-linejoin="round"/>
<path d="M35.0432 18.1113H18.1543V22.5558H35.0432V18.1113Z" stroke="#57A1B0" stroke-width="2" stroke-linecap="round" stroke-linejoin="round"/>
<path d="M26.5232 35.582L27.2199 35.1889C27.0781 34.9375 26.8118 34.782 26.5232 34.782V35.582ZM27.959 37.4617L28.5224 36.8938V36.8938L27.959 37.4617ZM33.6781 39.9666V40.7666C34.1129 40.7666 34.468 40.4194 34.4779 39.9848C34.4878 39.5501 34.1487 39.1872 33.7144 39.1674L33.6781 39.9666ZM16.6582 39.9666H15.8582C15.8582 40.4084 16.2164 40.7666 16.6582 40.7666V39.9666ZM16.6582 35.582V34.782C16.2164 34.782 15.8582 35.1402 15.8582 35.582H16.6582ZM25.8264 35.9751C26.2423 36.7123 26.7656 37.4047 27.3955 38.0296L28.5224 36.8938C27.9979 36.3734 27.564 35.7988 27.2199 35.1889L25.8264 35.9751ZM27.3955 38.0296C29.1304 39.7509 31.3726 40.6627 33.6418 40.7658L33.7144 39.1674C31.8246 39.0816 29.9634 38.3235 28.5224 36.8938L27.3955 38.0296ZM16.6582 40.7666H33.6781V39.1666H16.6582V40.7666ZM15.8582 35.582V39.9666H17.4582V35.582H15.8582ZM26.5232 34.782H16.6582V36.382H26.5232V34.782Z" fill="#57A1B0"/>
<path d="M40.1934 37.4598C43.5718 34.1079 43.5718 28.6734 40.1934 25.3215C36.8149 21.9696 31.3374 21.9696 27.959 25.3215C24.5806 28.6734 24.5806 34.1079 27.959 37.4598C31.3374 40.8117 36.8149 40.8117 40.1934 37.4598Z" fill="white" stroke="#57A1B0" stroke-width="2" stroke-linecap="round" stroke-linejoin="round"/>
<path fill-rule="evenodd" clip-rule="evenodd" d="M14.7297 21.623C14.2879 21.623 13.9297 21.9812 13.9297 22.423V26.8076C13.9297 27.2494 14.2879 27.6076 14.7297 27.6076H26.3084C26.5862 27.0467 26.9294 26.5096 27.3381 26.0076H15.5297V23.223H31.3489V23.2451C31.8717 23.0734 32.4076 22.9525 32.9489 22.8823V22.423C32.9489 21.9812 32.5908 21.623 32.1489 21.623H14.7297Z" fill="#57A1B0"/>
<path fill-rule="evenodd" clip-rule="evenodd" d="M25.4434 31.9914H16.6574C16.2156 31.9914 15.8574 31.6332 15.8574 31.1914V26.8068C15.8574 26.365 16.2156 26.0068 16.6574 26.0068H27.336C26.9273 26.5089 26.5841 27.0459 26.3064 27.6068H17.4574V30.3914H25.481C25.4186 30.9226 25.406 31.4584 25.4434 31.9914Z" fill="#57A1B0"/>
<path fill-rule="evenodd" clip-rule="evenodd" d="M27.0352 36.3811H14.7297C14.2879 36.3811 13.9297 36.0229 13.9297 35.5811V31.1965C13.9297 30.7547 14.2879 30.3965 14.7297 30.3965H25.4823C25.4202 30.9277 25.408 31.4635 25.4458 31.9965H15.5297V34.7811H26.1253C26.3664 35.338 26.6697 35.8748 27.0352 36.3811Z" fill="#57A1B0"/>
<path d="M33.77 36.143C33.0593 36.143 32.4397 36.0217 31.911 35.779C31.3823 35.5277 30.9013 35.1507 30.468 34.648L31.755 33.335C32.041 33.6817 32.3573 33.9547 32.704 34.154C33.0507 34.3447 33.4493 34.44 33.9 34.44C34.3247 34.44 34.654 34.362 34.888 34.206C35.122 34.0413 35.239 33.8117 35.239 33.517C35.239 33.2657 35.161 33.062 35.005 32.906C34.8577 32.75 34.6583 32.6157 34.407 32.503C34.1557 32.3903 33.8783 32.282 33.575 32.178C33.2717 32.074 32.9683 31.957 32.665 31.827C32.3703 31.6883 32.0973 31.5193 31.846 31.32C31.5947 31.112 31.391 30.8563 31.235 30.553C31.079 30.241 31.001 29.851 31.001 29.383C31.001 28.8197 31.1353 28.3343 31.404 27.927C31.6813 27.5197 32.0583 27.212 32.535 27.004C33.0117 26.7873 33.5577 26.679 34.173 26.679C34.771 26.679 35.33 26.7917 35.85 27.017C36.37 27.2423 36.7947 27.55 37.124 27.94L35.837 29.253C35.5683 28.967 35.2953 28.7503 35.018 28.603C34.7493 28.447 34.4547 28.369 34.134 28.369C33.7613 28.369 33.471 28.4383 33.263 28.577C33.055 28.7157 32.951 28.9193 32.951 29.188C32.951 29.422 33.029 29.6127 33.185 29.76C33.341 29.8987 33.5447 30.02 33.796 30.124C34.056 30.228 34.3333 30.332 34.628 30.436C34.9313 30.54 35.2347 30.6613 35.538 30.8C35.8413 30.9387 36.1187 31.1163 36.37 31.333C36.63 31.541 36.838 31.8097 36.994 32.139C37.15 32.4597 37.228 32.8583 37.228 33.335C37.228 34.2103 36.9203 34.8993 36.305 35.402C35.6983 35.896 34.8533 36.143 33.77 36.143ZM33.341 35.129H34.771V37.313H33.341V35.129ZM34.771 27.615H33.341V25.509H34.771V27.615Z" fill="#57A1B0"/>
</svg>
