<svg width="14" height="19" viewBox="0 0 14 19" fill="currentColor" xmlns="http://www.w3.org/2000/svg">
<path d="M9 0.25V4.75H13.5L9 0.25ZM7.875 4.75V0.25H1.6875C0.738281 0.25 0 1.02344 0 1.9375V16.5625C0 17.5117 0.738281 18.25 1.6875 18.25H11.8125C12.7266 18.25 13.5 17.5117 13.5 16.5625V5.875H9C8.36719 5.875 7.875 5.38281 7.875 4.75ZM9.5625 14.875H3.9375C3.62109 14.875 3.375 14.6289 3.375 14.3125C3.375 14.0312 3.62109 13.75 3.9375 13.75H9.5625C9.84375 13.75 10.125 14.0312 10.125 14.3125C10.125 14.6289 9.84375 14.875 9.5625 14.875ZM9.5625 12.625H3.9375C3.62109 12.625 3.375 12.3789 3.375 12.0625C3.375 11.7812 3.62109 11.5 3.9375 11.5H9.5625C9.84375 11.5 10.125 11.7812 10.125 12.0625C10.125 12.3789 9.84375 12.625 9.5625 12.625ZM10.125 9.8125C10.125 10.1289 9.84375 10.375 9.5625 10.375H3.9375C3.62109 10.375 3.375 10.1289 3.375 9.8125C3.375 9.53125 3.62109 9.25 3.9375 9.25H9.5625C9.84375 9.25 10.125 9.53125 10.125 9.8125Z"/>
</svg>
