<svg width="19" height="19" viewBox="0 0 19 19" fill="currentColor" xmlns="http://www.w3.org/2000/svg">
<path d="M9.68359 12.168C9.92969 11.8867 10.0352 11.5 9.96484 11.1484C9.75391 10.4102 9.75391 10.5156 9.96484 9.8125C10.0352 9.42578 9.92969 9.03906 9.68359 8.79297C9.15625 8.26562 9.19141 8.33594 9.01562 7.59766C8.91016 7.24609 8.62891 6.96484 8.27734 6.85938C7.57422 6.68359 7.67969 6.71875 7.15234 6.19141C6.87109 5.94531 6.48438 5.83984 6.13281 5.91016C5.42969 6.12109 5.53516 6.12109 4.83203 5.91016C4.48047 5.83984 4.09375 5.94531 3.8125 6.19141C3.28516 6.71875 3.39062 6.68359 2.6875 6.85938C2.33594 6.96484 2.05469 7.24609 1.94922 7.59766C1.77344 8.33594 1.80859 8.26562 1.28125 8.79297C1.03516 9.03906 0.929688 9.42578 1.03516 9.8125C1.21094 10.5156 1.21094 10.4102 1.03516 11.1484C0.929688 11.5 1.03516 11.8867 1.28125 12.168C1.80859 12.6953 1.77344 12.5898 1.94922 13.3281C2.05469 13.6797 2.33594 13.9609 2.6875 14.0664C3.17969 14.207 3.07422 14.1719 3.25 14.2422V18.25L5.5 17.125L7.75 18.25V14.2422C7.89062 14.1719 7.78516 14.207 8.27734 14.0664C8.62891 13.9609 8.875 13.6797 9.01562 13.3281C9.19141 12.5898 9.15625 12.6953 9.68359 12.168ZM5.5 12.625C4.23438 12.625 3.25 11.6406 3.25 10.375C3.25 9.14453 4.23438 8.125 5.5 8.125C6.73047 8.125 7.71484 9.14453 7.71484 10.375C7.71484 11.6406 6.73047 12.625 5.5 12.625ZM18.332 3.55469L15.6953 0.917969C15.2734 0.496094 14.7109 0.25 14.1133 0.25H7.71484C6.44922 0.25 5.46484 1.26953 5.46484 2.5V4.92578C5.46484 4.92578 6.23828 4.57422 7.15234 4.92578L7.1875 2.53516C7.1875 2.21875 7.43359 1.97266 7.75 1.97266H13.375V4.75C13.375 5.38281 13.8672 5.875 14.5 5.875H17.2773V16C17.2773 16.3164 16.9961 16.5625 16.7148 16.5625H8.875L8.83984 18.25H16.7148C17.9453 18.25 18.9648 17.2656 18.9648 16V5.13672C19 4.53906 18.7539 3.97656 18.332 3.55469Z"/>
</svg>
