<svg width="16" height="24" viewBox="0 0 16 24" fill="currentColor" xmlns="http://www.w3.org/2000/svg">
<path id="circle-check" d="M8 4C3.5625 4 0 7.59375 0 12C0 16.4375 3.5625 20 8 20C12.4062 20 16 16.4375 16 12C16 7.59375 12.4062 4 8 4ZM11.5938 10.625L7.59375 14.625C7.4375 14.8125 7.21875 14.875 7 14.875C6.75 14.875 6.53125 14.8125 6.375 14.625L4.375 12.625C4.03125 12.2812 4.03125 11.75 4.375 11.4062C4.71875 11.0625 5.25 11.0625 5.59375 11.4062L7 12.7812L10.375 9.40625C10.7188 9.0625 11.25 9.0625 11.5938 9.40625C11.9375 9.75 11.9375 10.2812 11.5938 10.625Z"/>
</svg>
