<svg width="15" height="15" viewBox="0 0 15 15" fill="none" xmlns="http://www.w3.org/2000/svg">
<path d="M7.5 0.75C11.3555 0.75 14.5 3.89453 14.5 7.75C14.5 11.6328 11.3555 14.75 7.5 14.75C3.61719 14.75 0.5 11.6328 0.5 7.75C0.5 3.89453 3.61719 0.75 7.5 0.75ZM7.5 13.4375C7.69141 13.4375 8.21094 13.2461 8.78516 12.125C9.03125 11.6328 9.22266 11.0586 9.38672 10.375H5.58594C5.75 11.0586 5.94141 11.6328 6.1875 12.125C6.76172 13.2461 7.28125 13.4375 7.5 13.4375ZM5.36719 9.0625H9.60547C9.66016 8.65234 9.6875 8.21484 9.6875 7.75C9.6875 7.3125 9.66016 6.875 9.60547 6.4375H5.36719C5.3125 6.875 5.3125 7.3125 5.3125 7.75C5.3125 8.21484 5.3125 8.65234 5.36719 9.0625ZM9.38672 5.125C9.22266 4.46875 9.03125 3.89453 8.78516 3.40234C8.21094 2.28125 7.69141 2.0625 7.5 2.0625C7.28125 2.0625 6.76172 2.28125 6.1875 3.40234C5.94141 3.89453 5.75 4.46875 5.58594 5.125H9.38672ZM10.918 6.4375C10.9727 6.875 11 7.3125 11 7.75C11 8.21484 10.9727 8.65234 10.918 9.0625H13.0234C13.1328 8.65234 13.1875 8.21484 13.1875 7.75C13.1875 7.3125 13.1328 6.875 13.0234 6.4375H10.918ZM9.85156 2.58203C10.2344 3.29297 10.5352 4.16797 10.7266 5.125H12.5312C11.957 4.00391 11 3.10156 9.85156 2.58203ZM5.12109 2.58203C3.97266 3.10156 3.01562 4.00391 2.44141 5.125H4.24609C4.4375 4.16797 4.73828 3.29297 5.12109 2.58203ZM1.8125 7.75C1.8125 8.21484 1.83984 8.65234 1.94922 9.0625H4.05469C4 8.65234 4 8.21484 4 7.75C4 7.3125 4 6.875 4.05469 6.4375H1.94922C1.83984 6.875 1.8125 7.3125 1.8125 7.75ZM12.5312 10.375H10.7266C10.5352 11.3594 10.2344 12.2344 9.85156 12.9453C11 12.4258 11.957 11.5234 12.5312 10.375ZM4.24609 10.375H2.44141C3.01562 11.5234 3.97266 12.4258 5.12109 12.9453C4.73828 12.2344 4.4375 11.3594 4.24609 10.375Z" fill="#1C2942"/>
</svg>
