<svg viewBox="0 0 55 55" fill="none" xmlns="http://www.w3.org/2000/svg">
<circle opacity="0.5" cx="50%" cy="50%" r="50%" fill="#FFE897"/>
<path d="M27.6201 17.5859H11.0684" stroke="#CEA123" stroke-width="1.8" stroke-linecap="round" stroke-linejoin="round"/>
<path d="M12.4477 32.7588H11.0684" stroke="#CEA123" stroke-width="1.8" stroke-linecap="round" stroke-linejoin="round"/>
<path d="M33.1387 34.0312L36.8338 37.7263C37.1855 38.0779 37.6626 38.2755 38.1599 38.2755C38.6573 38.2755 39.1343 38.0779 39.4861 37.7263C39.8377 37.3745 40.0352 36.8975 40.0352 36.4002C40.0352 35.9028 39.8377 35.4258 39.4861 35.074L35.791 31.3789" stroke="#CEA123" stroke-width="1.8" stroke-linecap="round" stroke-linejoin="round"/>
<path d="M30.3789 35.8126L32.9473 39.0231C33.2713 39.4279 33.7107 39.6553 34.1688 39.6553C34.6269 39.6553 35.0663 39.4279 35.3903 39.0231V39.0231C35.7142 38.618 35.8961 38.0688 35.8961 37.4961C35.8961 36.9235 35.7142 36.3743 35.3903 35.9692L32.8272 32.7588" stroke="#CEA123" stroke-width="1.8" stroke-linecap="round" stroke-linejoin="round"/>
<path d="M26.2422 40.3475L28.2915 41.8177C28.8237 42.1993 29.5454 42.4137 30.2979 42.4137C31.0504 42.4137 31.7721 42.1993 32.3043 41.8177C32.5688 41.629 32.7786 41.4047 32.9218 41.1577C33.065 40.9107 33.1387 40.6458 33.1387 40.3782C33.1387 40.1107 33.065 39.8458 32.9218 39.5987C32.7786 39.3517 32.5688 39.1274 32.3043 38.9388L29.4662 36.8965" stroke="#CEA123" stroke-width="1.8" stroke-linecap="round" stroke-linejoin="round"/>
<path d="M17.4106 32.4304L15.6897 33.7211C15.3336 33.988 14.8508 34.1379 14.3474 34.1379C13.8439 34.1379 13.3611 33.988 13.005 33.7211V33.7211C12.6491 33.454 12.4492 33.0919 12.4492 32.7143C12.4492 32.3367 12.6491 31.9746 13.005 31.7076L14.726 30.4169C15.082 30.1499 15.5649 30 16.0683 30C16.5717 30 17.0546 30.1499 17.4106 30.4169V30.4169C17.7665 30.6839 17.9665 31.046 17.9665 31.4236C17.9665 31.8012 17.7665 32.1633 17.4106 32.4304V32.4304Z" stroke="#CEA123" stroke-width="1.8" stroke-linecap="round" stroke-linejoin="round"/>
<path d="M20.1684 34.6194L18.4475 36.3403C18.0914 36.6962 17.6086 36.8961 17.1052 36.8961C16.6018 36.8961 16.1189 36.6962 15.7629 36.3403C15.407 35.9843 15.207 35.5014 15.207 34.998C15.207 34.4946 15.407 34.0117 15.7629 33.6557L17.4838 31.9347C17.8399 31.5788 18.3227 31.3789 18.8261 31.3789C19.3295 31.3789 19.8124 31.5788 20.1684 31.9347V31.9347C20.5243 32.2908 20.7243 32.7736 20.7243 33.2771C20.7243 33.7805 20.5243 34.2633 20.1684 34.6194V34.6194Z" stroke="#CEA123" stroke-width="1.8" stroke-linecap="round" stroke-linejoin="round"/>
<path d="M22.8772 37.6682L21.4913 39.0494C21.1038 39.4371 20.5784 39.6549 20.0305 39.6549C19.4827 39.6549 18.9572 39.4371 18.5697 39.0494V39.0494C18.1824 38.6614 17.9648 38.1354 17.9648 37.5869C17.9648 37.0384 18.1824 36.5124 18.5697 36.1245L19.9556 34.7433C20.3431 34.3555 20.8685 34.1377 21.4164 34.1377C21.9643 34.1377 22.4897 34.3555 22.8772 34.7433V34.7433C23.2645 35.1312 23.4821 35.6572 23.4821 36.2057C23.4821 36.7542 23.2645 37.2802 22.8772 37.6682Z" stroke="#CEA123" stroke-width="1.8" stroke-linecap="round" stroke-linejoin="round"/>
<path d="M25.7423 40.7788L25.0159 41.7478C24.6961 42.1742 24.2625 42.4137 23.8104 42.4137C23.3582 42.4137 22.9246 42.1742 22.6048 41.7478V41.7478C22.446 41.537 22.3199 41.2864 22.2338 41.0105C22.1478 40.7345 22.1035 40.4385 22.1035 40.1396C22.1035 39.8407 22.1478 39.5447 22.2338 39.2688C22.3199 38.9928 22.446 38.7422 22.6048 38.5314L23.3312 37.5624C23.651 37.136 24.0846 36.8965 24.5368 36.8965C24.9889 36.8965 25.4225 37.136 25.7423 37.5624V37.5624C26.0619 37.989 26.2414 38.5674 26.2414 39.1706C26.2414 39.7737 26.0619 40.3522 25.7423 40.7788Z" stroke="#CEA123" stroke-width="1.8" stroke-linecap="round" stroke-linejoin="round"/>
<path d="M46.9315 17.5859H27.945L20.7246 25.2275C20.7246 25.2275 23.6128 28.1741 25.578 26.1015L29.0814 22.4066H33.7402L42.6244 31.7764C43.0139 32.1874 43.2327 32.7447 43.2327 33.3259C43.2327 33.907 43.0139 34.4643 42.6244 34.8753V34.8753C42.2347 35.2862 41.7062 35.517 41.1552 35.517C40.6042 35.517 40.0757 35.2862 39.686 34.8753L35.5923 30.558" stroke="#CEA123" stroke-width="1.8" stroke-linecap="round" stroke-linejoin="round"/>
<path d="M42.793 32.7588H46.9309" stroke="#CEA123" stroke-width="1.8" stroke-linecap="round" stroke-linejoin="round"/>
</svg>
