<svg viewBox="0 0 14 14" fill="none" xmlns="http://www.w3.org/2000/svg">
<path d="M12.1566 2.68913C11.8586 2.39105 11.5049 2.15459 11.1155 1.99327C10.7262 1.83194 10.3089 1.7489 9.88741 1.7489C9.46596 1.7489 9.04863 1.83194 8.65928 1.99327C8.26993 2.15459 7.91618 2.39105 7.61824 2.68913L6.99991 3.30747L6.38157 2.68913C5.77975 2.08731 4.96351 1.74921 4.11241 1.74921C3.2613 1.74921 2.44506 2.08731 1.84324 2.68913C1.24142 3.29095 0.90332 4.1072 0.90332 4.9583C0.90332 5.8094 1.24142 6.62565 1.84324 7.22747L2.46157 7.8458L6.99991 12.3841L11.5382 7.8458L12.1566 7.22747C12.4547 6.92952 12.6911 6.57577 12.8524 6.18642C13.0138 5.79707 13.0968 5.37975 13.0968 4.9583C13.0968 4.53685 13.0138 4.11953 12.8524 3.73018C12.6911 3.34082 12.4547 2.98707 12.1566 2.68913V2.68913Z" stroke="currentColor" stroke-width="1.8" stroke-linecap="round" stroke-linejoin="round"/>
</svg>
