<svg viewBox="0 0 55 55" fill="none" xmlns="http://www.w3.org/2000/svg">
<circle opacity="0.5" cx="50%" cy="50%" r="50%" fill="#F1DABF"/>
<path d="M15.4589 42.1207C13.4879 42.1207 12.9082 40.9204 12.9082 39.9131V32.3578C12.9075 32.1265 12.9517 31.8974 13.0383 31.6835C13.1248 31.4697 13.252 31.2753 13.4126 31.1115C13.5732 30.9477 13.764 30.8178 13.9741 30.7292C14.1841 30.6405 14.4093 30.5949 14.6368 30.5949H17.1558L18.7368 33.1026L20.3179 30.5949H22.8369C23.0664 30.592 23.2941 30.6355 23.5069 30.7228C23.7197 30.8102 23.9133 30.9396 24.0766 31.1036C24.2398 31.2675 24.3694 31.4628 24.4579 31.6781C24.5463 31.8934 24.5919 32.1244 24.5918 32.3578V35.905" stroke="#D7807A" stroke-width="1.8" stroke-linecap="round" stroke-linejoin="round"/>
<path d="M15.6582 43.2725V34.0518" stroke="#D7807A" stroke-width="1.8" stroke-linecap="round" stroke-linejoin="round"/>
<path d="M22.0723 34.0518V43.2725" stroke="#D7807A" stroke-width="1.8" stroke-linecap="round" stroke-linejoin="round"/>
<path d="M21.156 26.0991C21.156 26.5322 21.0217 26.9556 20.7699 27.3158C20.5182 27.6759 20.1604 27.9566 19.7418 28.1224C19.3232 28.2881 18.8626 28.3315 18.4182 28.247C17.9738 28.1625 17.5656 27.9539 17.2452 27.6476C16.9248 27.3414 16.7066 26.9512 16.6182 26.5264C16.5298 26.1015 16.5752 25.6612 16.7486 25.2611C16.922 24.8609 17.2156 24.5189 17.5924 24.2783C17.9691 24.0376 18.412 23.9092 18.8651 23.9092C19.4727 23.9092 20.0554 24.1399 20.485 24.5506C20.9147 24.9613 21.156 25.5183 21.156 26.0991Z" stroke="#D7807A" stroke-width="1.8" stroke-linecap="round" stroke-linejoin="round"/>
<path d="M38.9897 42.1207C40.9642 42.1207 41.545 40.9204 41.545 39.913V32.3576C41.545 31.8901 41.362 31.4417 41.0362 31.1111C40.7105 30.7805 40.2687 30.5947 39.808 30.5947H37.2897L35.7058 33.1025L34.1219 30.5947H31.5983C31.1376 30.5947 30.6958 30.7805 30.3701 31.1111C30.0443 31.4417 29.8613 31.8901 29.8613 32.3576V35.9049" stroke="#D7807A" stroke-width="1.8" stroke-linecap="round" stroke-linejoin="round"/>
<path d="M39.0254 43.2725V34.0518" stroke="#D7807A" stroke-width="1.8" stroke-linecap="round" stroke-linejoin="round"/>
<path d="M32.3828 34.0518V43.2725" stroke="#D7807A" stroke-width="1.8" stroke-linecap="round" stroke-linejoin="round"/>
<path d="M33.5273 26.0991C33.5273 26.5323 33.655 26.9557 33.8941 27.3158C34.1333 27.6759 34.4732 27.9566 34.8709 28.1224C35.2685 28.2881 35.7061 28.3315 36.1283 28.247C36.5505 28.1625 36.9383 27.9539 37.2426 27.6476C37.547 27.3414 37.7543 26.9512 37.8383 26.5264C37.9222 26.1015 37.8791 25.6612 37.7144 25.2611C37.5497 24.8609 37.2707 24.5189 36.9128 24.2783C36.5549 24.0376 36.1342 23.9092 35.7037 23.9092C35.4177 23.9085 35.1344 23.9647 34.8701 24.0745C34.6057 24.1843 34.3655 24.3456 34.1633 24.5491C33.9611 24.7526 33.8008 24.9943 33.6916 25.2603C33.5825 25.5263 33.5267 25.8113 33.5273 26.0991V26.0991Z" stroke="#D7807A" stroke-width="1.8" stroke-linecap="round" stroke-linejoin="round"/>
<path d="M22.0723 38.2012L26.3734 40.7188C26.4225 40.7484 26.4734 40.7749 26.5257 40.7982C26.7116 40.8953 26.9154 40.9529 27.1244 40.9674H27.2294H27.3345C27.545 40.9523 27.7504 40.8947 27.9384 40.7982C27.9891 40.7749 28.0382 40.7484 28.0855 40.7188L32.3814 38.2012" stroke="#D7807A" stroke-width="1.8" stroke-linecap="round" stroke-linejoin="round"/>
<path d="M29.8576 35.8965H29.8628L27.2283 37.5101L24.5938 35.8965" stroke="#D7807A" stroke-width="1.8" stroke-linecap="round" stroke-linejoin="round"/>
<path d="M36.2759 15.5919C36.2759 13.0539 34.5275 11 31.4298 11C29.1249 11 27.2295 12.6761 27.2295 14.283C27.2295 12.6867 25.3131 11 23.0291 11C19.9314 11 18.1777 13.0539 18.1777 15.5919C18.1897 16.2372 18.3303 16.8734 18.5911 17.4623C18.8518 18.0511 19.2274 18.5805 19.6951 19.0186L27.198 26.6753L34.7428 19.0292C35.2147 18.5913 35.5938 18.0608 35.8574 17.47C36.1209 16.8791 36.2633 16.2402 36.2759 15.5919V15.5919Z" stroke="#D7807A" stroke-width="1.8" stroke-linecap="round" stroke-linejoin="round"/>
</svg>
