<svg viewBox="0 0 17 9" fill="none" stroke="currentColor" xmlns="http://www.w3.org/2000/svg">
  <path d="M3.92 8.24C3.264 8.24 2.648 8.072 2.072 7.736C1.512 7.4 1.056 6.936 0.704 6.344C0.368 5.752 0.2 5.08 0.2 4.328C0.2 3.544 0.368 2.856 0.704 2.264C1.056 1.672 1.528 1.208 2.12 0.872C2.712 0.519999 3.376 0.343999 4.112 0.343999C5.04 0.343999 5.856 0.615999 6.56 1.16C7.28 1.704 7.952 2.36 8.576 3.128C9.008 2.696 9.424 2.272 9.824 1.856C10.24 1.424 10.704 1.064 11.216 0.775999C11.728 0.487999 12.328 0.343999 13.016 0.343999C13.752 0.343999 14.392 0.503999 14.936 0.823999C15.496 1.144 15.936 1.592 16.256 2.168C16.576 2.744 16.736 3.416 16.736 4.184C16.736 5.016 16.552 5.736 16.184 6.344C15.816 6.952 15.336 7.424 14.744 7.76C14.168 8.08 13.552 8.24 12.896 8.24C12.192 8.24 11.488 8.024 10.784 7.592C10.08 7.16 9.304 6.432 8.456 5.408C8.04 5.904 7.608 6.368 7.16 6.8C6.712 7.232 6.224 7.584 5.696 7.856C5.168 8.112 4.576 8.24 3.92 8.24ZM4.112 6.8C4.608 6.8 5.072 6.672 5.504 6.416C5.936 6.16 6.336 5.848 6.704 5.48C7.072 5.096 7.4 4.728 7.688 4.376C7.4 3.928 7.064 3.504 6.68 3.104C6.312 2.688 5.904 2.352 5.456 2.096C5.008 1.84 4.52 1.712 3.992 1.712C3.304 1.712 2.744 1.968 2.312 2.48C1.896 2.976 1.688 3.592 1.688 4.328C1.688 5 1.912 5.584 2.36 6.08C2.808 6.56 3.392 6.8 4.112 6.8ZM12.968 6.8C13.448 6.8 13.856 6.68 14.192 6.44C14.528 6.184 14.784 5.864 14.96 5.48C15.136 5.096 15.224 4.712 15.224 4.328C15.224 3.528 15 2.896 14.552 2.432C14.12 1.952 13.568 1.712 12.896 1.712C12.256 1.712 11.648 1.968 11.072 2.48C10.512 2.976 9.928 3.56 9.32 4.232C10.088 5.128 10.736 5.784 11.264 6.2C11.792 6.6 12.36 6.8 12.968 6.8Z" fill="#33343D"/>
</svg>
