<svg viewBox="0 0 18 17" fill="#A4DBB3" xmlns="http://www.w3.org/2000/svg">
<path d="M10.4673 13.138L10.4673 16.7107L14.0313 16.7107C14.5144 16.7107 14.9927 16.6155 15.4389 16.4307C15.8852 16.2459 16.2907 15.975 16.6322 15.6335C16.9738 15.2919 17.2447 14.8865 17.4296 14.4403C17.6144 13.9941 17.7096 13.5159 17.7096 13.0329L17.7096 9.46838L14.1374 9.46838C13.164 9.46838 12.2305 9.855 11.5422 10.5432C10.854 11.2314 10.4673 12.1648 10.4673 13.138Z"/>
<path d="M0.811523 13.0429L0.811523 9.47025L4.42722 9.47025C4.91725 9.47025 5.40248 9.56538 5.85521 9.75021C6.30794 9.93503 6.71931 10.2059 7.06582 10.5474C7.41232 10.889 7.68718 11.2944 7.87471 11.7406C8.06223 12.1868 8.15875 12.6651 8.15875 13.148L8.15875 16.7125L4.53478 16.7125C3.54731 16.7125 2.60029 16.3259 1.90204 15.6377C1.20379 14.9495 0.811523 14.0162 0.811523 13.0429Z"/>
<path d="M6.93513 7.63935L9.28168 9.9859L11.646 7.6216C11.9664 7.30117 12.2212 6.9214 12.3959 6.50396C12.5705 6.08653 12.6616 5.63961 12.6638 5.18872C12.6661 4.73783 12.5796 4.29181 12.4091 3.87612C12.2387 3.46042 11.9877 3.08319 11.6704 2.76597L9.32925 0.424781L6.95954 2.79449C6.31383 3.4402 5.94851 4.31339 5.94393 5.22198C5.93935 6.13057 6.2959 7.00012 6.93513 7.63935Z"/>
</svg>
