<svg width="18" height="15" viewBox="0 0 18 15" fill="currentColor" xmlns="http://www.w3.org/2000/svg">
<path d="M16.8516 1.89844C16.0859 1.13281 15.1016 0.75 14.1172 0.75C13.1328 0.75 12.1484 1.13281 11.3828 1.89844L10.207 3.07422C10.6172 3.29297 11 3.56641 11.3555 3.89453C11.4375 3.97656 11.5195 4.08594 11.5742 4.16797L12.6133 3.12891C13.0234 2.74609 13.543 2.5 14.1172 2.5C14.6914 2.5 15.2109 2.74609 15.6211 3.12891C16.0039 3.53906 16.2227 4.05859 16.2227 4.63281C16.2227 5.20703 16.0039 5.72656 15.6211 6.13672L11.9844 9.77344C11.5742 10.1562 11.0547 10.375 10.4805 10.375C9.90625 10.375 9.38672 10.1562 8.97656 9.77344C8.59375 9.36328 8.34766 8.84375 8.34766 8.26953C8.34766 7.69531 8.56641 7.17578 8.94922 6.76562L9.08594 6.68359C9.03125 6.57422 8.94922 6.46484 8.86719 6.38281C8.64844 6.13672 8.32031 6 7.99219 6C7.66406 6 7.36328 6.13672 7.11719 6.35547C6.29688 7.83203 6.48828 9.74609 7.74609 11.0039C8.51172 11.7695 9.49609 12.125 10.4805 12.125C11.4648 12.125 12.4492 11.7695 13.2148 11.0039L16.8516 7.36719C17.6445 6.57422 18 5.5625 17.9727 4.52344C17.9727 3.56641 17.5898 2.63672 16.8516 1.89844ZM6.89844 11.3594L5.85938 12.3984C5.44922 12.7812 4.92969 13 4.35547 13C3.78125 13 3.26172 12.7812 2.85156 12.3984C2.46875 11.9883 2.25 11.4688 2.25 10.8945C2.25 10.3203 2.46875 9.80078 2.85156 9.39062L6.48828 5.75391C6.89844 5.34375 7.41797 5.125 7.99219 5.125C8.59375 5.125 9.08594 5.37109 9.49609 5.75391C9.87891 6.16406 10.0977 6.68359 10.0977 7.25781C10.0977 7.83203 9.87891 8.35156 9.49609 8.76172L9.38672 8.84375C9.44141 8.95312 9.52344 9.0625 9.60547 9.14453C9.82422 9.39062 10.1523 9.5 10.4805 9.5C10.8086 9.5 11.1094 9.39062 11.3555 9.17188C12.1758 7.69531 11.9844 5.78125 10.7266 4.52344C9.96094 3.75781 8.97656 3.375 7.99219 3.375C7.00781 3.375 6.02344 3.75781 5.25781 4.52344L1.62109 8.16016C0.855469 8.92578 0.5 9.91016 0.5 10.8945C0.5 11.8789 0.855469 12.8906 1.62109 13.6289C2.38672 14.3945 3.37109 14.75 4.35547 14.75C5.33984 14.75 6.32422 14.3945 7.08984 13.6289L8.26562 12.4531C7.85547 12.2344 7.47266 11.9609 7.11719 11.6328C7.03516 11.5508 6.95312 11.4414 6.89844 11.3594Z"/>
</svg>
