<svg width="15" height="14" viewBox="0 0 15 14" fill="currentColor" xmlns="http://www.w3.org/2000/svg">
<path d="M4.28209 12.26C4.06973 12.4726 3.73059 12.4726 3.51822 12.26L2.25674 10.9974C2.04437 10.7849 2.04437 10.4454 2.25674 10.2329L6.03803 6.44813C5.15055 6.02302 4.05071 6.16261 3.32171 6.9113L1.19176 9.00829C0.269414 9.93147 0.269414 11.4416 1.19176 12.3647L2.13312 13.307C3.05547 14.2301 4.56418 14.2301 5.48653 13.307L7.59746 11.1941C8.32647 10.4644 8.48494 9.3636 8.06022 8.47532L4.28209 12.26Z"/>
<path d="M13.7944 1.63526L12.8531 0.693046C11.9307 -0.230135 10.422 -0.230135 9.49965 0.693046L7.38871 2.80589C6.65971 3.53556 6.50123 4.6364 6.92596 5.52468L10.7073 1.74313C10.9196 1.53057 11.2588 1.53057 11.4711 1.74313L12.7326 3.00576C12.945 3.21831 12.945 3.55776 12.7326 3.77032L8.96716 7.55187C9.85464 7.97698 10.9545 7.83739 11.6835 7.0887L13.7944 4.97585C14.7358 4.05267 14.7358 2.55844 13.7944 1.63526Z"/>
<path d="M3.92742 4.12259C4.01616 4.21141 4.13978 4.26535 4.26339 4.26535C4.387 4.26535 4.51062 4.21141 4.59936 4.12259C4.79588 3.92589 4.79588 3.62451 4.59936 3.44685L2.98288 1.82891C2.78637 1.63222 2.48526 1.63222 2.30776 1.82891C2.11759 2.0256 2.11759 2.33015 2.31093 2.50781L3.92742 4.12259Z"/>
<path d="M4.15851 4.62028L2.68466 4.60124C2.41842 4.60124 2.20605 4.8138 2.20605 5.08028C2.20605 5.34677 2.41842 5.55932 2.68466 5.55932L4.15851 5.57836C4.42476 5.57836 4.63712 5.3658 4.63712 5.09932C4.63712 4.83283 4.42476 4.62028 4.15851 4.62028Z"/>
<path d="M5.59479 4.142C5.86103 4.142 6.0734 3.92944 6.0734 3.66296L6.05438 2.18777C6.05438 1.92129 5.84202 1.70873 5.57577 1.70873C5.30953 1.70873 5.09717 1.92129 5.09717 2.18777L5.11619 3.66296C5.11619 3.92944 5.32855 4.142 5.59479 4.142Z"/>
<path d="M11.0623 9.88073C10.8657 9.68404 10.5646 9.68404 10.3871 9.88073C10.1906 10.0774 10.1906 10.3788 10.3871 10.5565L12.0036 12.1744C12.0924 12.2632 12.216 12.3172 12.3396 12.3172C12.4632 12.3172 12.5868 12.2632 12.6756 12.1744C12.8721 11.9777 12.8721 11.6763 12.6756 11.4987L11.0623 9.88073Z"/>
<path d="M9.39462 9.86198C9.12838 9.86198 8.91602 10.0745 8.91602 10.341V11.8162C8.91602 12.0827 9.12838 12.2952 9.39462 12.2952C9.66087 12.2952 9.87323 12.0827 9.87323 11.8162V10.341C9.87323 10.0745 9.66087 9.86198 9.39462 9.86198Z"/>
<path d="M10.8307 9.38243H12.3045C12.5708 9.38243 12.7831 9.16988 12.7831 8.90339C12.7831 8.63691 12.5708 8.42435 12.3045 8.42435H10.8307C10.5644 8.42435 10.3521 8.63691 10.3521 8.90339C10.3521 9.16988 10.5644 9.38243 10.8307 9.38243Z"/>
</svg>
