<svg width="18" height="16" viewBox="0 0 18 16" fill="currentColor" xmlns="http://www.w3.org/2000/svg">
<path d="M3.9375 2.625C3.9375 3.57422 3.16406 4.3125 2.25 4.3125C1.30078 4.3125 0.5625 3.57422 0.5625 2.625C0.5625 1.71094 1.30078 0.9375 2.25 0.9375C3.16406 0.9375 3.9375 1.71094 3.9375 2.625ZM0.5625 8.25C0.5625 7.33594 1.30078 6.5625 2.25 6.5625C3.16406 6.5625 3.9375 7.33594 3.9375 8.25C3.9375 9.19922 3.16406 9.9375 2.25 9.9375C1.30078 9.9375 0.5625 9.19922 0.5625 8.25ZM0.5625 13.875C0.5625 12.9609 1.30078 12.1875 2.25 12.1875C3.16406 12.1875 3.9375 12.9609 3.9375 13.875C3.9375 14.8242 3.16406 15.5625 2.25 15.5625C1.30078 15.5625 0.5625 14.8242 0.5625 13.875ZM7.38281 0.9375H14.9062C15.3633 0.9375 15.75 1.32422 15.75 1.78125V3.46875C15.75 3.96094 15.3633 4.3125 14.9062 4.3125H7.38281C7.13672 4.3125 6.92578 4.24219 6.71484 4.10156L5.37891 3.08203C5.0625 2.87109 5.0625 2.41406 5.37891 2.20312L6.71484 1.18359C6.92578 1.04297 7.13672 0.9375 7.38281 0.9375ZM5.37891 7.82812L6.71484 6.80859C6.92578 6.66797 7.13672 6.5625 7.38281 6.5625H17.1562C17.6133 6.5625 18 6.94922 18 7.40625V9.09375C18 9.58594 17.6133 9.9375 17.1562 9.9375H7.38281C7.13672 9.9375 6.92578 9.86719 6.71484 9.72656L5.37891 8.70703C5.0625 8.49609 5.0625 8.03906 5.37891 7.82812ZM5.37891 13.4531L6.71484 12.4336C6.92578 12.293 7.13672 12.1875 7.38281 12.1875H14.9062C15.3633 12.1875 15.75 12.5742 15.75 13.0312V14.7188C15.75 15.2109 15.3633 15.5625 14.9062 15.5625H7.38281C7.13672 15.5625 6.92578 15.4922 6.71484 15.3516L5.37891 14.332C5.0625 14.1211 5.0625 13.6641 5.37891 13.4531Z"/>
</svg>
