<svg width="607" height="53" viewBox="0 0 607 53" fill="none" xmlns="http://www.w3.org/2000/svg">
<path d="M76.4736 12.0355L70.0207 7.32565L62.543 7.09473L69.2792 14.0537L76.4736 12.0355Z" fill="#F9D760"/>
<path d="M538.546 39.7697L546.79 39.045L552.584 34.4443L542.509 33.7315L538.546 39.7697Z" fill="#F9D760"/>
<path d="M522.478 16.9079L527.926 19.5991L523.434 26.4425L517.987 23.7513L522.478 16.9079Z" fill="#2C8040"/>
<path d="M601.482 -0.000265177L606.93 2.69092L602.438 9.53426L596.991 6.84308L601.482 -0.000265177Z" fill="#2C8040"/>
<path d="M31.959 47.6421L30.7383 44.2588L39.3716 41.837L40.5923 45.2203L31.959 47.6421Z" fill="#E06363"/>
<path d="M518.202 46.2492L523.449 46.7091L523.895 52.7933L513 47.4109L518.202 46.2492Z" fill="#FFA187"/>
<path d="M56.1998 26.1054L48.4387 23.6253L51.0332 20.5689L57.2028 23.0297L56.1998 26.1054Z" fill="#636CE5"/>
<path d="M543.682 16.729L551.307 13.566L551.553 17.4189L545.14 19.5813L543.682 16.729Z" fill="white"/>
<path d="M7.65082 33.2001L3.82025 37.4486L3.73633 42.2959L9.43671 37.8313L7.65082 33.2001Z" fill="white"/>
<path d="M569.721 6.53404L573.253 9.89182L569.454 15.2608L565.123 4.56573L569.721 6.53404Z" fill="#FF8A6A"/>
<path d="M31.8623 22.5541L25.4094 17.8442L17.9316 17.6133L24.6679 24.5723L31.8623 22.5541Z" fill="#F9D760"/>
</svg>
