<svg width="35" height="36" viewBox="0 0 35 36" fill="none" xmlns="http://www.w3.org/2000/svg">
<rect y="0.5" width="35" height="35" rx="8" fill="url(#paint0_linear_771_11088)"/>
<path d="M18.8672 22.3314L18.8672 26.4994L23.0251 26.4994C23.5887 26.4994 24.1467 26.3884 24.6673 26.1728C25.1879 25.9572 25.661 25.6411 26.0595 25.2427C26.4579 24.8443 26.774 24.3713 26.9897 23.8507C27.2053 23.3302 27.3163 22.7722 27.3163 22.2088L27.3163 18.0503L23.1488 18.0503C22.0133 18.0503 20.9242 18.5013 20.1213 19.3042C19.3183 20.1071 18.8672 21.196 18.8672 22.3314Z" fill="#8FDAA1"/>
<path d="M7.60156 22.2189L7.60156 18.0509L11.8198 18.0509C12.3915 18.0509 12.9576 18.1619 13.4857 18.3775C14.0139 18.5931 14.4938 18.9092 14.8981 19.3076C15.3023 19.706 15.623 20.179 15.8417 20.6996C16.0605 21.2201 16.1731 21.7781 16.1731 22.3415L16.1731 26.5L11.9453 26.5C10.7932 26.5 9.6884 26.049 8.8738 25.2461C8.0592 24.4432 7.60156 23.3543 7.60156 22.2189Z" fill="#8FDAA1"/>
<path d="M14.7455 15.9168L17.483 18.6544L20.2413 15.8961C20.6152 15.5223 20.9124 15.0793 21.1162 14.5923C21.3199 14.1053 21.4262 13.5839 21.4288 13.0578C21.4315 12.5318 21.3305 12.0115 21.1316 11.5265C20.9328 11.0415 20.6399 10.6015 20.2699 10.2314L17.5385 7.50004L14.7739 10.2646C14.0206 11.0179 13.5944 12.0366 13.5891 13.0966C13.5837 14.1566 13.9997 15.1711 14.7455 15.9168Z" fill="#8FDAA1"/>
<defs>
<linearGradient id="paint0_linear_771_11088" x1="17.5" y1="0.5" x2="17.5" y2="35.5" gradientUnits="userSpaceOnUse">
<stop stop-color="#6A6FA4"/>
<stop offset="1" stop-color="#192338"/>
</linearGradient>
</defs>
</svg>
