<svg viewBox="0 0 40 40" fill="none" xmlns="http://www.w3.org/2000/svg">
<rect width="40" height="40" rx="20" fill="url(#paint0_linear_1198_2657)"/>
<path d="M21.5586 24.9498L21.5586 29.7133L26.3105 29.7133C26.9546 29.7133 27.5923 29.5864 28.1873 29.34C28.7823 29.0936 29.3229 28.7324 29.7783 28.277C30.2337 27.8217 30.595 27.2811 30.8414 26.6862C31.0879 26.0913 31.2147 25.4536 31.2147 24.8097L31.2147 20.0571L26.4519 20.0571C25.1541 20.0571 23.9095 20.5726 22.9918 21.4902C22.0741 22.4077 21.5586 23.6522 21.5586 24.9498Z" fill="white"/>
<path d="M8.68555 24.8212L8.68555 20.0577L13.5064 20.0577C14.1597 20.0577 14.8067 20.1846 15.4103 20.431C16.0139 20.6774 16.5624 21.0386 17.0244 21.494C17.4864 21.9493 17.8529 22.4899 18.1029 23.0848C18.3529 23.6797 18.4816 24.3174 18.4816 24.9613L18.4816 29.7139L13.6498 29.7139C12.3332 29.7139 11.0705 29.1984 10.1395 28.2808C9.20856 27.3633 8.68555 26.1188 8.68555 24.8212Z" fill="white"/>
<path d="M16.8503 17.6183L19.9789 20.747L23.1313 17.5947C23.5585 17.1674 23.8982 16.6611 24.1311 16.1045C24.3639 15.548 24.4854 14.9521 24.4884 14.3509C24.4914 13.7497 24.376 13.1551 24.1487 12.6008C23.9215 12.0466 23.5868 11.5436 23.1639 11.1207L20.0424 7.99914L16.8828 11.1587C16.0219 12.0196 15.5348 13.1838 15.5287 14.3953C15.5226 15.6067 15.998 16.7661 16.8503 17.6183Z" fill="white"/>
<defs>
<linearGradient id="paint0_linear_1198_2657" x1="20" y1="0" x2="20" y2="40" gradientUnits="userSpaceOnUse">
<stop stop-color="#E9C362"/>
<stop offset="1" stop-color="#C8971B"/>
</linearGradient>
</defs>
</svg>
