<svg width="17" height="18" viewBox="0 0 17 18" fill="none" xmlns="http://www.w3.org/2000/svg">
<rect y="0.5" width="17" height="17" rx="4" fill="url(#paint0_linear_1005_5946)"/>
<path d="M9.16211 11.1038L9.16211 13.1283L11.1817 13.1283C11.4554 13.1283 11.7264 13.0744 11.9793 12.9696C12.2322 12.8649 12.462 12.7114 12.6555 12.5179C12.849 12.3244 13.0026 12.0946 13.1073 11.8418C13.2121 11.5889 13.266 11.3179 13.266 11.0443L13.266 9.02441L11.2418 9.02441C10.6902 9.02441 10.1612 9.24349 9.77123 9.63346C9.38122 10.0234 9.16211 10.5523 9.16211 11.1038Z" fill="white"/>
<path d="M3.69141 11.049L3.69141 9.02456L5.74025 9.02456C6.01793 9.02456 6.29289 9.07847 6.54943 9.1832C6.80597 9.28793 7.03907 9.44144 7.23542 9.63496C7.43177 9.82848 7.58752 10.0582 7.69378 10.3111C7.80005 10.5639 7.85474 10.8349 7.85474 11.1086L7.85474 13.1284L5.8012 13.1284C5.24165 13.1284 4.70502 12.9093 4.30935 12.5194C3.91369 12.1294 3.69141 11.6005 3.69141 11.049Z" fill="white"/>
<path d="M7.16264 7.98783L8.49232 9.31751L9.83206 7.97777C10.0136 7.7962 10.158 7.581 10.257 7.34446C10.3559 7.10792 10.4075 6.85467 10.4088 6.59917C10.4101 6.34368 10.3611 6.09094 10.2645 5.85538C10.1679 5.61983 10.0257 5.40607 9.84592 5.22632L8.51927 3.89967L7.17647 5.24248C6.81058 5.60837 6.60357 6.10317 6.60097 6.61802C6.59838 7.13287 6.80042 7.62561 7.16264 7.98783Z" fill="white"/>
<defs>
<linearGradient id="paint0_linear_1005_5946" x1="8.5" y1="0.5" x2="8.5" y2="17.5" gradientUnits="userSpaceOnUse">
<stop stop-color="#E9C362"/>
<stop offset="1" stop-color="#C8971B"/>
</linearGradient>
</defs>
</svg>
