<svg width="20" height="19" viewBox="0 0 20 19" fill="currentColor" xmlns="http://www.w3.org/2000/svg">
<path d="M8.83984 4.85547L6.23828 0.53125C6.16797 0.355469 5.95703 0.25 5.78125 0.25H1.5625C1.10547 0.25 0.824219 0.777344 1.07031 1.16406L5.00781 6.75391C6.02734 5.76953 7.36328 5.10156 8.83984 4.85547ZM10 5.875C6.55469 5.875 3.8125 8.65234 3.8125 12.0625C3.8125 15.5078 6.55469 18.25 10 18.25C13.4102 18.25 16.1875 15.5078 16.1875 12.0625C16.1875 8.65234 13.4102 5.875 10 5.875ZM13.2344 11.4297L11.8984 12.7305L12.2148 14.5586C12.2852 14.875 11.9336 15.1562 11.6172 14.9805L9.96484 14.1016L8.34766 14.9805C8.03125 15.1211 7.67969 14.875 7.75 14.5586L8.06641 12.7305L6.73047 11.4297C6.48438 11.1836 6.625 10.7617 6.94141 10.7266L8.80469 10.4453L9.61328 8.79297C9.68359 8.65234 9.82422 8.58203 9.96484 8.58203C10.1406 8.58203 10.2812 8.65234 10.3516 8.79297L11.1602 10.4453L13.0234 10.7266C13.3398 10.7617 13.4805 11.1836 13.2344 11.4297ZM18.4023 0.25H14.1836C14.0078 0.25 13.7969 0.355469 13.6914 0.53125L11.125 4.82031C12.6016 5.06641 13.9375 5.73438 14.957 6.71875L18.8945 1.12891C19.1406 0.777344 18.8594 0.25 18.4023 0.25Z"/>
</svg>
