<svg width="20" height="19" viewBox="0 0 20 19" fill="currentColor" xmlns="http://www.w3.org/2000/svg">
<path d="M13.0234 10.4453L11.1602 10.1641L10.3516 8.51172C10.2812 8.37109 10.1406 8.30078 9.96484 8.30078C9.82422 8.30078 9.68359 8.37109 9.61328 8.51172L8.80469 10.1641L6.94141 10.4453C6.625 10.4805 6.48438 10.9023 6.73047 11.1484L8.06641 12.4492L7.75 14.2773C7.71484 14.5234 7.92578 14.7344 8.13672 14.7344C8.20703 14.7344 8.27734 14.7344 8.34766 14.6992L9.96484 13.8203L11.6172 14.6992C11.6875 14.7344 11.7578 14.7344 11.8281 14.7344C12.0391 14.7344 12.25 14.5234 12.2148 14.2773L11.8984 12.4492L13.2344 11.1484C13.4805 10.9023 13.3398 10.4805 13.0234 10.4453ZM10 5.3125C6.41406 5.3125 3.53125 8.23047 3.53125 11.7812C3.53125 15.3672 6.41406 18.25 10 18.25C13.5508 18.25 16.4336 15.3672 16.4336 11.7812C16.4336 8.23047 13.5508 5.3125 10 5.3125ZM10 16.5625C7.36328 16.5625 5.21875 14.418 5.21875 11.7812C5.21875 9.17969 7.36328 7 10 7C12.6367 7 14.7461 9.17969 14.7461 11.7812C14.7461 14.418 12.6016 16.5625 10 16.5625ZM5.74609 5.48828L3.39062 1.9375H5.85156L7.39844 4.67969C7.92578 4.46875 8.48828 4.32812 9.08594 4.25781L7.04688 0.707031C6.90625 0.425781 6.625 0.25 6.34375 0.25H1.84375C1.52734 0.25 1.21094 0.425781 1.07031 0.707031C0.929688 0.988281 0.964844 1.30469 1.14062 1.58594L4.48047 6.57812C4.86719 6.19141 5.28906 5.80469 5.74609 5.48828ZM18.8945 0.707031C18.7539 0.425781 18.4375 0.25 18.1211 0.25H13.6562C13.3398 0.25 13.0586 0.425781 12.918 0.707031L10.8789 4.25781C11.4766 4.32812 12.0391 4.46875 12.5664 4.67969L14.1133 1.9375H16.5742L14.2188 5.48828C14.6758 5.80469 15.0977 6.19141 15.4844 6.57812L18.8242 1.58594C19 1.30469 19.0352 0.988281 18.8945 0.707031Z"/>
</svg>
