<svg width="18" height="16" viewBox="0 0 18 16" fill="none" xmlns="http://www.w3.org/2000/svg">
<path d="M15.2188 0.59375C14.8438 0.21875 14.3125 0 13.8125 0C13.3125 0 12.7812 0.21875 12.4062 0.59375L2.40625 10.5938C2.125 10.875 1.9375 11.2188 1.84375 11.5938L1 15.4062C0.9375 15.7188 1.1875 16 1.46875 16C1.5 16 1.5625 16 1.59375 16C1.59375 16 4.21875 15.4375 5.40625 15.1562C5.78125 15.0938 6.09375 14.9062 6.375 14.625L16.4062 4.59375C17.1875 3.8125 17.1875 2.5625 16.4062 1.78125L15.2188 0.59375ZM5.3125 13.5625C5.25 13.6562 5.15625 13.6875 5.0625 13.7188C4.5 13.8438 3.59375 14.0312 2.8125 14.2188L3.3125 11.9062C3.34375 11.8125 3.375 11.7188 3.46875 11.6562L11 4.09375L12.9062 6L5.3125 13.5625Z" fill="black"/>
</svg>
