<svg viewBox="0 0 55 55" fill="none" xmlns="http://www.w3.org/2000/svg">
<circle opacity="0.5" cx="50%" cy="50%" r="50%" fill="#D3FFE0"/>
<path d="M30.3395 22.3748C30.3395 22.983 30.1591 23.5775 29.8212 24.0832C29.4833 24.5889 29.0031 24.983 28.4412 25.2157C27.8793 25.4485 27.261 25.5094 26.6646 25.3907C26.0681 25.2721 25.5201 24.9792 25.0901 24.5492C24.6601 24.1191 24.3672 23.5712 24.2485 22.9747C24.1299 22.3782 24.1908 21.7599 24.4235 21.1981C24.6563 20.6362 25.0504 20.1559 25.5561 19.818C26.0618 19.4801 26.6563 19.2998 27.2645 19.2998C28.08 19.2998 28.8621 19.6238 29.4388 20.2004C30.0155 20.7771 30.3395 21.5593 30.3395 22.3748V22.3748Z" stroke="#55AC63" stroke-width="1.8" stroke-linecap="round" stroke-linejoin="round"/>
<path d="M32.3906 34.6748V41.8498" stroke="#55AC63" stroke-width="1.8" stroke-linecap="round" stroke-linejoin="round"/>
<path d="M18.0391 31.5004C18.0391 31.1097 18.1108 30.7228 18.2501 30.3619C18.3895 30.001 18.5938 29.673 18.8513 29.3967C19.1088 29.1205 19.4145 28.9014 19.7509 28.7518C20.0874 28.6023 20.448 28.5254 20.8121 28.5254H25.2311L27.7766 32.7608L30.3221 28.5254H34.741C35.476 28.5269 36.1806 28.8408 36.7003 29.3984C37.2201 29.956 37.5127 30.7118 37.5141 31.5004V41.8504" stroke="#55AC63" stroke-width="1.8" stroke-linecap="round" stroke-linejoin="round"/>
<path d="M10.8652 41.8496H43.6652" stroke="#55AC63" stroke-width="1.8" stroke-linecap="round" stroke-linejoin="round"/>
<path d="M12.9737 41.8496H26.2402L24.1372 31.5996H10.8652L12.9737 41.8496Z" stroke="#55AC63" stroke-width="1.8" stroke-linecap="round" stroke-linejoin="round"/>
<path d="M17.0156 35.6998C17.0156 35.9025 17.0757 36.1007 17.1884 36.2693C17.301 36.4378 17.4611 36.5692 17.6484 36.6468C17.8357 36.7244 18.0418 36.7447 18.2406 36.7051C18.4394 36.6656 18.6221 36.5679 18.7654 36.4246C18.9088 36.2812 19.0064 36.0986 19.0459 35.8998C19.0855 35.701 19.0652 35.4948 18.9876 35.3076C18.91 35.1203 18.7786 34.9602 18.6101 34.8475C18.4415 34.7349 18.2433 34.6748 18.0406 34.6748C17.7688 34.6748 17.5081 34.7828 17.3158 34.975C17.1236 35.1672 17.0156 35.428 17.0156 35.6998Z" fill="#55AC63"/>
<path d="M34.1177 22.2996V25.45L37.8439 22.2996H43.6644V12.125H29.3145V15.8934" stroke="#55AC63" stroke-width="1.8" stroke-linecap="round" stroke-linejoin="round"/>
<path d="M34.125 16.9758L35.6773 18.3886L38.6806 15.6553" stroke="#55AC63" stroke-width="1.8" stroke-linecap="round" stroke-linejoin="round"/>
</svg>
