<svg width="14" height="19" viewBox="0 0 14 19" fill="currentColor" xmlns="http://www.w3.org/2000/svg">
<path d="M2.8125 3.625C3.72656 3.625 4.5 2.85156 4.5 1.9375C4.5 1.05859 3.72656 0.25 2.8125 0.25C1.86328 0.25 1.125 1.02344 1.125 1.9375C1.125 2.81641 1.86328 3.625 2.8125 3.625ZM12.9375 3.625H7.3125C6.99609 3.625 6.75 3.87109 6.75 4.15234V8.6875H5.55469L4.42969 5.98047C4.11328 5.24219 3.41016 4.75 2.60156 4.75H1.96875C0.878906 4.75 0 5.62891 0 6.68359V10.2695C0 10.5508 0.105469 11.2891 0.738281 11.7812L3.41016 13.8906C3.62109 14.0664 3.76172 14.2773 3.83203 14.5234L4.5 17.5117C4.60547 17.9336 5.02734 18.25 5.51953 18.1094C5.97656 18.0391 6.25781 17.5469 6.15234 17.0898L5.37891 13.8555C5.30859 13.4336 5.0625 13.0469 4.71094 12.7656L3.375 11.8164V7.80859L4.14844 9.70703C4.32422 10.0938 4.71094 10.375 5.16797 10.375H12.9375C13.2188 10.375 13.5 10.1289 13.5 9.84766V4.1875C13.5 3.90625 13.2188 3.625 12.9375 3.625ZM11.8125 8.6875H8.4375V5.3125H11.8125V8.6875ZM0 17.4062C0 17.8633 0.351562 18.2148 0.84375 18.2148C1.30078 18.2148 1.6875 17.8984 1.6875 17.4062V14.0312C1.26562 13.6797 0 12.6953 0 12.6602V17.4062Z"/>
</svg>
