<svg width="21" height="16" viewBox="0 0 21 16" fill="currentColor" xmlns="http://www.w3.org/2000/svg">
<path d="M5.37109 12.7695C5.19531 12.8398 5.08984 13.0508 5.08984 13.2617V14.5977C5.08984 15.0195 5.58203 15.3008 5.96875 15.0547L8.32422 13.6484L6.63672 11.9609L5.37109 12.7695ZM20.0312 5.91406L18.0273 4.68359C18.0273 4.22656 17.957 3.59375 17.7812 2.99609C17.3945 1.48438 16.6562 0.394531 16.1641 0.535156C15.6719 0.675781 15.6016 1.97656 15.9883 3.45312C16.0234 3.55859 16.0586 3.62891 16.0586 3.69922C15.8828 3.48828 15.707 3.27734 15.4961 3.06641C14.4062 1.97656 13.2461 1.37891 12.8594 1.76562C12.4727 2.11719 13.0703 3.27734 14.1602 4.36719C14.6172 4.82422 15.0742 5.17578 15.4609 5.42188C15.3555 5.63281 15.2852 5.84375 15.2148 6.08984C15.2148 6.19531 15.2148 6.30078 15.2148 6.44141C13.3867 5.17578 9.76562 2.78516 7.33984 2.78516C5.47656 2.78516 4.31641 3.76953 3.64844 4.68359C3.57812 4.57812 3.54297 4.47266 3.47266 4.40234C2.80469 3.73438 1.71484 3.73438 1.08203 4.40234C0.414062 5.03516 0.414062 6.125 1.08203 6.79297C1.64453 7.35547 2.52344 7.39062 3.19141 6.96875L9.90625 13.6836C10.1172 13.8945 10.3984 14.0352 10.7148 14.0352H15.7422C16.0586 14.0352 16.2695 13.7539 16.2695 13.4727V12.875C16.2695 12.2773 15.7773 11.7852 15.1445 11.7852H11.8398V9.85156C11.8398 8.58594 11.0312 7.49609 9.80078 7.14453L8.32422 6.6875C8.04297 6.58203 7.86719 6.30078 7.9375 5.98438C8.00781 5.70312 8.32422 5.52734 8.64062 5.63281L10.1172 6.05469C11.8047 6.54688 12.9648 8.09375 12.9648 9.85156V10.6602L15.2148 9.53516H18.8711C19.9609 9.5 20.875 8.62109 20.875 7.53125C20.875 6.86328 20.5586 6.26562 20.0312 5.91406ZM18.0273 7.25C17.7109 7.25 17.4648 7.00391 17.4648 6.72266C17.4648 6.44141 17.7109 6.19531 18.0273 6.19531C18.3086 6.19531 18.5898 6.44141 18.5898 6.72266C18.5898 7.00391 18.3438 7.25 18.0273 7.25Z"/>
</svg>
