<svg width="199" height="118" viewBox="0 0 199 118" fill="none" xmlns="http://www.w3.org/2000/svg">
<g opacity="0.06">
<path d="M26.8971 8.25612L34.1671 3.41695L42.5918 3.17969L35.0025 10.3297L26.8971 8.25612Z" fill="#E9BB46"/>
<path d="M169.091 111.181L160.176 113.67L152.18 111.523L162.399 106.959L169.091 111.181Z" fill="#E9BB46"/>
<path d="M32.3999 36.4613L34.6348 30.8125L25.4486 28.4624L23.2137 34.1112L32.3999 36.4613Z" fill="#5FB974"/>
<path d="M176.203 83.2191L171.652 87.8828L179.237 92.6677L183.787 88.0039L176.203 83.2191Z" fill="#5FB974"/>
<path d="M92.5524 72.4215L93.9277 68.9453L84.2012 66.457L82.8259 69.9332L92.5524 72.4215Z" fill="#E49883"/>
<path d="M64.2315 73.3132L67.3259 65.4918L62.7572 60.495L58.2874 71.7926L64.2315 73.3132Z" fill="#636CE5"/>
<path d="M193.077 109.504L187.792 111.966L189.9 117.932L199 108.605L193.077 109.504Z" fill="#E49883"/>
<path d="M49.7403 22.7207L58.4842 20.1726L55.5612 17.0323L48.6103 19.5606L49.7403 22.7207Z" fill="#636CE5"/>
<path d="M153.98 91.2231L144.68 91.1516L146.053 94.9155L153.664 94.5014L153.98 91.2231Z" fill="#636CE5"/>
<path d="M67.7505 47.8747L61.8091 44.9987L59.5547 40.3594L67.5663 42.851L67.7505 47.8747Z" fill="#E9BB46"/>
<path d="M125.568 57.5842L129.884 61.9493L129.979 66.9297L123.556 62.3425L125.568 57.5842Z" fill="#E9BB46"/>
<path d="M70.8809 93.8378L70.8809 99.7656L80.5208 99.7656L80.5208 93.8378L70.8809 93.8378Z" fill="#5FB974"/>
<path d="M3.18906e-07 59.6412L0 63.2891L10.2069 63.2891L10.2069 59.6412L3.18906e-07 59.6412Z" fill="#E49883"/>
<path d="M26.6523 32.7304L26.6523 40.9381L32.8899 44.5859L32.8899 32.7304L26.6523 32.7304Z" fill="#636CE5"/>
<path d="M122.483 91.5579L120.215 96.1178L126.452 99.7656L126.452 87.9101L122.483 91.5579Z" fill="#E49883"/>
<path d="M59.5397 96.5743L52.168 101.134L56.1373 103.414L61.8079 99.3102L59.5397 96.5743Z" fill="#636CE5"/>
<path d="M6.0708 78.7908L3.18906e-07 86.0865L3.26889 89.7344L7.93873 83.1682L6.0708 78.7908Z" fill="#5FB974"/>
<path d="M32.8897 76.9927L39.6358 78.2848L43.5332 82.1562L34.9593 81.735L32.8897 76.9927Z" fill="#E9BB46"/>
<path d="M82.7916 19.0608L90.0617 14.2216L98.4863 13.9844L90.8971 21.1344L82.7916 19.0608Z" fill="#E9BB46"/>
</g>
</svg>
