<svg width="246" height="160" viewBox="0 0 246 160" fill="none" xmlns="http://www.w3.org/2000/svg">
<g opacity="0.28">
<path d="M33.6484 11.173L42.6187 4.6257L53.0137 4.30469L43.6495 13.9785L33.6484 11.173Z" fill="#E9BB46"/>
<path d="M209.097 150.435L198.096 153.803L188.23 150.898L200.84 144.723L209.097 150.435Z" fill="#E9BB46"/>
<path d="M40.4378 49.3302L43.1953 41.6875L31.8607 38.5079L29.1032 46.1506L40.4378 49.3302Z" fill="#5FB974"/>
<path d="M217.872 112.596L212.258 118.906L221.616 125.38L227.23 119.07L217.872 112.596Z" fill="#5FB974"/>
<path d="M114.659 97.9923L116.355 93.2891L104.354 89.9224L102.657 94.6256L114.659 97.9923Z" fill="#E49883"/>
<path d="M79.7135 99.1995L83.5316 88.6173L77.8944 81.8567L72.3793 97.1421L79.7135 99.1995Z" fill="#636CE5"/>
<path d="M238.693 148.169L232.172 151.5L234.772 159.572L246.001 146.952L238.693 148.169Z" fill="#E49883"/>
<path d="M61.8342 30.7386L72.623 27.2911L69.0164 23.0423L60.4399 26.4631L61.8342 30.7386Z" fill="#636CE5"/>
<path d="M190.453 123.428L178.978 123.331L180.672 128.423L190.063 127.863L190.453 123.428Z" fill="#636CE5"/>
<path d="M84.056 64.7774L76.725 60.8863L73.9434 54.6094L83.8286 57.9805L84.056 64.7774Z" fill="#E9BB46"/>
<path d="M155.396 77.9183L160.721 83.8241L160.838 90.5625L152.914 84.3562L155.396 77.9183Z" fill="#E9BB46"/>
<path d="M87.918 126.964L87.918 134.984L99.8124 134.984L99.8124 126.964L87.918 126.964Z" fill="#5FB974"/>
<path d="M0.460938 80.6895L0.460938 85.625L13.055 85.625L13.055 80.6895L0.460938 80.6895Z" fill="#E49883"/>
<path d="M33.3457 44.2956L33.3457 55.4005L41.0421 60.3359L41.0421 44.2956L33.3457 44.2956Z" fill="#636CE5"/>
<path d="M151.59 123.88L148.791 130.049L156.487 134.984L156.487 118.944L151.59 123.88Z" fill="#E49883"/>
<path d="M73.9258 130.668L64.8301 136.837L69.7278 139.922L76.7245 134.369L73.9258 130.668Z" fill="#636CE5"/>
<path d="M7.95152 106.6L0.460938 116.471L4.49433 121.406L10.2563 112.522L7.95152 106.6Z" fill="#5FB974"/>
<path d="M41.0431 104.17L49.3668 105.918L54.1758 111.156L43.5967 110.586L41.0431 104.17Z" fill="#E9BB46"/>
<path d="M102.615 25.798L111.586 19.2507L121.98 18.9297L112.616 28.6035L102.615 25.798Z" fill="#E9BB46"/>
</g>
</svg>
