<svg width="88" height="57" viewBox="0 0 88 57" fill="none" xmlns="http://www.w3.org/2000/svg">
<g opacity="0.5">
<path d="M73.2653 48.7703L64.3498 51.4999L56.3539 49.146L66.5733 44.1409L73.2653 48.7703Z" fill="#E9BB46"/>
<path d="M80.3768 18.1024L75.8265 23.2163L83.4108 28.463L87.9611 23.3491L80.3768 18.1024Z" fill="#5FB974"/>
<path d="M9.72657 40.2702L11.1019 36.4585L1.37529 33.73L-5.22488e-06 37.5417L9.72657 40.2702Z" fill="#4F99B9"/>
<path d="M58.1539 26.8825L48.854 26.8041L50.2268 30.9314L57.8383 30.4773L58.1539 26.8825Z" fill="#636CE5"/>
<path d="M51.7425 -6.62752e-05L56.0582 4.78636L56.1527 10.2475L49.7305 5.21757L51.7425 -6.62752e-05Z" fill="#E9BB46"/>
<path d="M36.6572 47.2475L34.389 52.2475L40.6266 56.2475L40.6266 43.2475L36.6572 47.2475Z" fill="#E49883"/>
</g>
</svg>
