<svg width="246" height="146" viewBox="0 0 246 146" fill="none" xmlns="http://www.w3.org/2000/svg">
<g opacity="0.06">
<path d="M33.1875 10.4824L42.1578 4.5115L52.5527 4.21875L43.1886 13.041L33.1875 10.4824Z" fill="#E9BB46"/>
<path d="M208.636 137.484L197.636 140.555L187.77 137.906L200.379 132.274L208.636 137.484Z" fill="#E9BB46"/>
<path d="M39.9768 45.2824L42.7344 38.3125L31.3998 35.4128L28.6422 42.3827L39.9768 45.2824Z" fill="#5FB974"/>
<path d="M217.411 102.98L211.797 108.734L221.155 114.638L226.769 108.884L217.411 102.98Z" fill="#5FB974"/>
<path d="M114.198 89.6564L115.895 85.3672L103.893 82.2969L102.196 86.5861L114.198 89.6564Z" fill="#E49883"/>
<path d="M79.2525 90.7601L83.0706 81.1095L77.4334 74.944L71.9184 88.8838L79.2525 90.7601Z" fill="#636CE5"/>
<path d="M238.232 135.414L231.711 138.451L234.311 145.812L245.54 134.304L238.232 135.414Z" fill="#E49883"/>
<path d="M61.3733 28.3326L72.1621 25.1885L68.5555 21.3138L59.979 24.4334L61.3733 28.3326Z" fill="#636CE5"/>
<path d="M189.992 112.852L178.517 112.763L180.211 117.408L189.602 116.897L189.992 112.852Z" fill="#636CE5"/>
<path d="M83.595 59.3666L76.2641 55.8181L73.4824 50.0938L83.3677 53.1681L83.595 59.3666Z" fill="#E9BB46"/>
<path d="M154.935 71.3517L160.26 76.7376L160.377 82.8828L152.453 77.2229L154.935 71.3517Z" fill="#E9BB46"/>
<path d="M87.457 116.084L87.457 123.398L99.3514 123.398L99.3514 116.084L87.457 116.084Z" fill="#5FB974"/>
<path d="M3.93489e-07 73.8896L0 78.3906L12.5941 78.3906L12.5941 73.8896L3.93489e-07 73.8896Z" fill="#E49883"/>
<path d="M32.8848 40.6843L32.8848 50.8115L40.5811 55.3125L40.5811 40.6843L32.8848 40.6843Z" fill="#636CE5"/>
<path d="M151.129 113.271L148.33 118.897L156.026 123.398L156.026 108.77L151.129 113.271Z" fill="#E49883"/>
<path d="M73.4648 119.459L64.3691 125.085L69.2668 127.898L76.2635 122.835L73.4648 119.459Z" fill="#636CE5"/>
<path d="M7.49058 97.5126L3.93489e-07 106.515L4.03339 111.016L9.79537 102.914L7.49058 97.5126Z" fill="#5FB974"/>
<path d="M40.5821 95.2929L48.9059 96.8872L53.7148 101.664L43.1357 101.144L40.5821 95.2929Z" fill="#E9BB46"/>
<path d="M102.154 23.8183L111.125 17.8474L121.52 17.5547L112.155 26.3769L102.154 23.8183Z" fill="#E9BB46"/>
</g>
</svg>
