<svg width="261" height="89" viewBox="0 0 261 89" fill="none" xmlns="http://www.w3.org/2000/svg">
<path d="M57.0997 70.9123L59.0703 77.1064L50.9703 79.6833L48.9998 73.4892L57.0997 70.9123Z" fill="#5FB974"/>
<path d="M93.8583 84.4846L101.568 87.2787L98.9909 90.7221L92.862 87.9497L93.8583 84.4846Z" fill="#636CE5"/>
<path d="M185.773 19.362L177.572 19.4404L178.783 15.3131L185.494 15.7672L185.773 19.362Z" fill="#636CE5"/>
<path d="M7.22672 73.2046L1.98785 76.3581L0 81.4453L7.06424 78.7132L7.22672 73.2046Z" fill="#E9BB46"/>
<path d="M160.721 46.2446L164.526 41.4581L164.609 35.997L158.947 41.0269L160.721 46.2446Z" fill="#E9BB46"/>
<path d="M112.5 6.49697V-0.00302505H121V6.49697H112.5Z" fill="#5FB974"/>
<path d="M50 44V40H59V44H50Z" fill="white"/>
<path d="M252 87V84H261V87H252Z" fill="white"/>
<path d="M52.0312 74.997V65.997L57.5312 61.997V74.997H52.0312Z" fill="#636CE5"/>
<path d="M158 18.997L156 13.997L161.5 9.99697V22.997L158 18.997Z" fill="#E06363"/>
<path d="M102.5 3.49697L96 -1.50303L99.5 -4.00303L104.5 0.496975L102.5 3.49697Z" fill="#636CE5"/>
<path d="M55.3529 22.997L50 14.997L52.8824 10.997L57 18.197L55.3529 22.997Z" fill="#5FB974"/>
<path d="M78.9998 24.9715L84.9482 23.5546L88.3848 19.3095L80.8247 19.7714L78.9998 24.9715Z" fill="#E9BB46"/>
<path d="M123.001 88.4852L129.411 93.7915L136.84 94.0517L130.148 86.2114L123.001 88.4852Z" fill="#E9BB46"/>
</svg>
