<svg width="199" height="130" viewBox="0 0 199 130" fill="none" xmlns="http://www.w3.org/2000/svg">
<g opacity="0.18">
<path d="M26.8971 9.05084L34.1671 3.74454L42.5918 3.48438L35.0025 11.3246L26.8971 9.05084Z" fill="#E9BB46"/>
<path d="M169.091 121.913L160.176 124.643L152.18 122.289L162.399 117.284L169.091 121.913Z" fill="#E9BB46"/>
<path d="M32.3999 39.9753L34.6348 33.7812L25.4486 31.2043L23.2137 37.3984L32.3999 39.9753Z" fill="#5FB974"/>
<path d="M176.203 91.2455L171.652 96.3594L179.237 101.606L183.787 96.4922L176.203 91.2455Z" fill="#5FB974"/>
<path d="M92.5524 79.4133L93.9277 75.6016L84.2012 72.873L82.8259 76.6848L92.5524 79.4133Z" fill="#E49883"/>
<path d="M64.2315 80.3882L67.3259 71.8117L62.7572 66.3326L58.2874 78.7208L64.2315 80.3882Z" fill="#636CE5"/>
<path d="M193.077 120.076L187.792 122.775L189.9 129.317L199 119.089L193.077 120.076Z" fill="#E49883"/>
<path d="M49.7403 24.903L58.4842 22.1089L55.5612 18.6655L48.6103 21.4379L49.7403 24.903Z" fill="#636CE5"/>
<path d="M153.98 100.026L144.68 99.9472L146.053 104.074L153.664 103.62L153.98 100.026Z" fill="#636CE5"/>
<path d="M67.7505 52.4907L61.8091 49.3372L59.5547 44.25L67.5663 46.9821L67.7505 52.4907Z" fill="#E9BB46"/>
<path d="M125.568 63.143L129.884 67.9295L129.979 73.3906L123.556 68.3607L125.568 63.143Z" fill="#E9BB46"/>
<path d="M70.8809 102.891L70.8809 109.391L80.5208 109.391L80.5208 102.891L70.8809 102.891Z" fill="#5FB974"/>
<path d="M3.49691e-07 65.3906L0 69.3906L10.2069 69.3906L10.2069 65.3906L3.49691e-07 65.3906Z" fill="#E49883"/>
<path d="M26.6523 35.8906L26.6523 44.8906L32.8899 48.8906L32.8899 35.8906L26.6523 35.8906Z" fill="#636CE5"/>
<path d="M122.483 100.391L120.215 105.391L126.452 109.391L126.452 96.3906L122.483 100.391Z" fill="#E49883"/>
<path d="M59.5397 105.891L52.168 110.891L56.1373 113.391L61.8079 108.891L59.5397 105.891Z" fill="#636CE5"/>
<path d="M6.0708 86.3906L3.49691e-07 94.3906L3.26889 98.3906L7.93873 91.1906L6.0708 86.3906Z" fill="#5FB974"/>
<path d="M32.8897 84.4161L39.6358 85.833L43.5332 90.0781L34.9593 89.6162L32.8897 84.4161Z" fill="#E9BB46"/>
<path d="M82.7916 20.9024L90.0617 15.5961L98.4863 15.3359L90.8971 23.1762L82.7916 20.9024Z" fill="#E9BB46"/>
</g>
</svg>
