<svg width="16" height="17" viewBox="0 0 16 17" fill="currentColor" xmlns="http://www.w3.org/2000/svg">
<path d="M15.75 13.875V2.625C15.75 1.39453 14.7305 0.375 13.5 0.375H2.25C0.984375 0.375 0 1.39453 0 2.625V13.875C0 15.1406 0.984375 16.125 2.25 16.125H13.5C14.7305 16.125 15.75 15.1406 15.75 13.875ZM8.19141 12.7148C7.98047 12.6445 7.875 12.4336 7.875 12.1875V9.9375H4.5C3.86719 9.9375 3.375 9.44531 3.375 8.8125V7.6875C3.375 7.08984 3.86719 6.5625 4.5 6.5625H7.875V4.3125C7.875 4.10156 7.98047 3.89062 8.19141 3.82031C8.40234 3.71484 8.64844 3.78516 8.82422 3.92578L12.7617 7.86328C12.9727 8.07422 12.9727 8.46094 12.7617 8.67188L8.82422 12.6094C8.64844 12.75 8.40234 12.8203 8.19141 12.7148Z"/>
</svg>
