<svg width="16" height="15" viewBox="0 0 16 15" fill="none" xmlns="http://www.w3.org/2000/svg">
<path d="M14.2784 8.53125C13.8722 8.40625 13.4659 8.625 13.3409 9.03125C12.6847 11.375 10.4972 13 8.05966 13C5.96591 13 4.09091 11.8125 3.15341 10H6.30966C6.71591 10 7.05966 9.6875 7.05966 9.25C7.05966 8.84375 6.74716 8.5 6.30966 8.5H1.30966C0.903409 8.5 0.559659 8.84375 0.559659 9.25V14.25C0.559659 14.6875 0.903409 15 1.30966 15C1.74716 15 2.05966 14.6875 2.05966 14.25V11.0625C3.30966 13.1562 5.59091 14.5 8.05966 14.5C11.1534 14.5 13.9034 12.4375 14.7784 9.46875C14.9034 9.0625 14.6847 8.65625 14.2784 8.53125ZM14.8409 0C14.4034 0 14.0909 0.34375 14.0909 0.75V3.96875C12.8409 1.875 10.5597 0.5 8.09091 0.5C4.99716 0.5 2.21591 2.59375 1.34091 5.5625C1.24716 5.9375 1.46591 6.375 1.87216 6.46875C2.27841 6.59375 2.68466 6.375 2.77841 5.96875C3.46591 3.65625 5.65341 2 8.09091 2C10.1534 2 12.0284 3.21875 12.9659 5H9.84091C9.40341 5 9.09091 5.34375 9.09091 5.75C9.09091 6.1875 9.40341 6.5 9.84091 6.5H14.8409C15.2472 6.5 15.5909 6.1875 15.5909 5.75V0.75C15.5909 0.34375 15.2472 0 14.8409 0Z" fill="white"/>
</svg>
