<svg width="14" height="14" viewBox="0 0 14 14" fill="currentColor" xmlns="http://www.w3.org/2000/svg">
<path d="M12.5 0H1.5C0.65625 0 0 0.6875 0 1.5V12.5C0 13.3438 0.65625 14 1.5 14H12.5C13.3125 14 14 13.3438 14 12.5V1.5C14 0.6875 13.3125 0 12.5 0ZM10.9688 4.96875C10.9688 5.0625 10.9688 5.15625 10.9688 5.25C10.9688 7.9375 8.90625 11.0625 5.125 11.0625C3.96875 11.0625 2.90625 10.75 2 10.1562C2.15625 10.1875 2.3125 10.1875 2.46875 10.1875C3.4375 10.1875 4.3125 9.84375 5.03125 9.3125C4.125 9.28125 3.375 8.6875 3.09375 7.875C3.4375 7.9375 3.71875 7.9375 4.03125 7.84375C3.09375 7.65625 2.40625 6.84375 2.40625 5.84375V5.8125C2.65625 5.96875 2.96875 6.0625 3.3125 6.0625C2.75 5.6875 2.40625 5.0625 2.40625 4.375C2.40625 3.96875 2.5 3.625 2.6875 3.3125C3.6875 4.5625 5.21875 5.375 6.90625 5.46875C6.625 4.09375 7.65625 2.9375 8.90625 2.9375C9.5 2.9375 10.0312 3.1875 10.4062 3.59375C10.875 3.5 11.3125 3.34375 11.7188 3.09375C11.5625 3.59375 11.2188 3.96875 10.8125 4.21875C11.2188 4.1875 11.625 4.0625 12 3.90625C11.7188 4.3125 11.3438 4.6875 10.9688 4.96875Z"/>
</svg>
