<svg width="13" height="15" viewBox="0 0 13 15" fill="currentColor" xmlns="http://www.w3.org/2000/svg">
<path d="M7.9375 9.0625H5.3125C2.63281 9.0625 0.5 11.2227 0.5 13.875C0.5 14.3672 0.882812 14.75 1.375 14.75H11.875C12.3398 14.75 12.75 14.3672 12.75 13.875C12.75 11.2227 10.5898 9.0625 7.9375 9.0625ZM1.8125 13.4375C2.03125 11.7148 3.50781 10.375 5.3125 10.375H7.9375C9.71484 10.375 11.1914 11.7148 11.4102 13.4375H1.8125ZM6.625 7.75C8.53906 7.75 10.125 6.19141 10.125 4.25C10.125 2.33594 8.53906 0.75 6.625 0.75C4.68359 0.75 3.125 2.33594 3.125 4.25C3.125 6.19141 4.68359 7.75 6.625 7.75ZM6.625 2.0625C7.82812 2.0625 8.8125 3.04688 8.8125 4.25C8.8125 5.48047 7.82812 6.4375 6.625 6.4375C5.39453 6.4375 4.4375 5.48047 4.4375 4.25C4.4375 3.04688 5.39453 2.0625 6.625 2.0625Z"/>
</svg>
