<svg width="222" height="186" viewBox="0 0 222 186" fill="none" xmlns="http://www.w3.org/2000/svg">
<path opacity="0.6" d="M97.9091 183.964C97.9091 185.255 93.3242 186 65.0851 186C36.846 186 0.87561 184.956 0.87561 183.664C0.87561 182.373 36.846 181.327 65.0851 181.327C93.3242 181.327 97.9091 182.674 97.9091 183.964Z" fill="#D1D1D1"/>
<path d="M203.013 49.8414H102C91.5136 49.8414 83.0127 58.3199 83.0127 68.7787V79.3835C83.0127 89.8422 91.5136 98.3207 102 98.3207H203.013C213.499 98.3207 222 89.8422 222 79.3835V68.7787C222 58.3199 213.499 49.8414 203.013 49.8414Z" fill="#F5F5F5"/>
<g opacity="0.6">
<path opacity="0.4" d="M208.684 60.3856H96.3266V63.978H208.684V60.3856Z" fill="#002583"/>
<path opacity="0.4" d="M208.684 68.5229H96.3266V72.1153H208.684V68.5229Z" fill="#002583"/>
<path opacity="0.4" d="M208.684 76.6603H96.3266V80.2527H208.684V76.6603Z" fill="#002583"/>
<path opacity="0.4" d="M117.545 84.7976H96.3266V88.39H117.545V84.7976Z" fill="#002583"/>
</g>
<path d="M121.424 20.7937H92.1247C87.0923 20.7937 83.0127 24.8625 83.0127 29.8817V34.972C83.0127 39.9911 87.0923 44.06 92.1247 44.06H121.424C126.457 44.06 130.536 39.9911 130.536 34.972V29.8817C130.536 24.8625 126.457 20.7937 121.424 20.7937Z" fill="#E2857E"/>
<path d="M100.984 32.7132C101.141 31.7448 100.482 30.8324 99.511 30.6752C98.5401 30.518 97.6253 31.1756 97.4677 32.144C97.3101 33.1123 97.9694 34.0248 98.9403 34.182C99.9112 34.3391 100.826 33.6816 100.984 32.7132Z" fill="white"/>
<path d="M108.508 32.7138C108.666 31.7455 108.006 30.833 107.035 30.6758C106.064 30.5187 105.15 31.1762 104.992 32.1446C104.834 33.1129 105.494 34.0254 106.465 34.1826C107.436 34.3397 108.35 33.6822 108.508 32.7138Z" fill="white"/>
<path d="M116.03 32.7141C116.188 31.7457 115.529 30.8333 114.558 30.6761C113.587 30.5189 112.672 31.1765 112.514 32.1448C112.357 33.1132 113.016 34.0256 113.987 34.1828C114.958 34.34 115.873 33.6824 116.03 32.7141Z" fill="white"/>
<path d="M161.241 104.381H60.2279C49.7414 104.381 41.2405 112.859 41.2405 123.318V147.179C41.2405 157.638 49.7414 166.116 60.2279 166.116H161.241C171.727 166.116 180.228 157.638 180.228 147.179V123.318C180.228 112.859 171.727 104.381 161.241 104.381Z" fill="#F5F5F5"/>
<g opacity="0.6">
<path opacity="0.4" d="M165.891 118.21H53.5329V121.803H165.891V118.21Z" fill="#002583"/>
<path opacity="0.4" d="M165.891 126.348H53.5329V129.94H165.891V126.348Z" fill="#002583"/>
<path opacity="0.4" d="M165.891 134.485H53.5329V138.078H165.891V134.485Z" fill="#002583"/>
<path opacity="0.4" d="M165.891 142.624H53.5329V146.217H165.891V142.624Z" fill="#002583"/>
<path opacity="0.4" d="M116.523 150.762H53.5329V154.354H116.523V150.762Z" fill="#002583"/>
</g>
<path d="M183.827 111.53C184.507 107.401 181.702 103.503 177.562 102.825C173.422 102.147 169.514 104.944 168.834 109.073C168.154 113.202 170.959 117.1 175.099 117.778C179.239 118.457 183.147 115.659 183.827 111.53Z" fill="#E2857E"/>
<path d="M178.899 112.13V113.787H174.479V112.13H175.861V108.788H174.471V107.541C175.265 107.477 176.322 106.928 176.987 106.381H177.556V112.13H178.899Z" fill="white"/>
<path d="M190.392 1.50031C188.094 1.54576 185.419 3.90724 185.62 6.54708C185.822 9.18693 186.57 13.6864 188.313 13.8076C189.086 13.8625 191.717 12.8778 191.717 12.8778L191.97 16.0252L196.906 14.673L194.918 10.6091C194.918 10.6091 197.962 1.34882 190.392 1.50031Z" fill="#E2857E"/>
<path d="M185.871 4.86355C185.871 4.86355 188.275 4.70637 189.099 5.81041C189.923 6.91445 190.348 9.49559 190.922 6.97505C191.203 5.74224 192.15 5.78768 192.847 6.53381C193.703 7.45037 192.684 8.71159 192.902 9.03921C193.12 9.36682 194.636 10.6413 194.928 10.6034C195.22 10.5655 196.827 5.25176 194.708 2.62896C192.725 0.172798 185.841 1.03634 185.871 4.86355Z" fill="#2A3756"/>
<path d="M185.871 4.86355C185.871 4.86355 183.049 3.34858 183.349 2.53806C183.539 2.04569 185.233 2.94332 185.455 2.46799C185.645 2.08925 184.246 1.52113 184.409 1.13292C185.26 -0.912303 192.672 0.15197 193.276 1.6518C193.88 3.15163 185.871 4.86355 185.871 4.86355Z" fill="#2A3756"/>
<path d="M175.642 48.9873C173.744 49.9341 172.604 52.1744 165.837 55.0813C162.448 56.5338 160.661 57.2496 157.802 58.2438L154.616 53.5568C159.881 50.0194 171.444 42.2513 173.603 40.8367C176.664 38.8313 189.017 50.5988 189.017 50.5988C189.017 50.5988 196.284 50.9075 198.08 55.6115C198.427 56.5205 189.739 57.1265 182.935 54.8957C179.897 53.9072 176.241 48.7051 175.642 48.9873Z" fill="#1D273F"/>
<path d="M143.309 57.7078L154.27 62.4535L155.239 59.3573L150.929 56.3633L143.711 56.422L143.309 57.7078Z" fill="#1D273F"/>
<path d="M155.239 59.3573L151.21 56.5583L153.989 55.3085L155.816 58.7967L155.239 59.3573Z" fill="white"/>
<path d="M153.989 55.3085L155.816 58.7967L157.546 57.8669L155.275 54.5264L153.989 55.3085Z" fill="#E2857E"/>
<path d="M200.165 57.9124C197.066 65.2089 179.681 54.0568 178.36 55.7119C177.038 57.367 177.458 60.2909 175.259 64.0803C173.413 67.2655 170.303 71.3616 168.139 73.475L163.257 70.5871C166.51 65.1521 172.107 51.1537 173.455 48.9589C175.367 45.8437 191.258 50.3659 191.258 50.3659C191.258 50.3659 197.903 47.4458 201.532 50.9341C202.549 51.9245 200.622 56.8065 200.165 57.9124Z" fill="#2A3756"/>
<path d="M153.761 76.5429L164.943 80.7412L165.758 77.6015L161.303 74.8234L154.099 75.2381L153.761 76.5429Z" fill="#2A3756"/>
<path d="M165.215 77.2624L162.042 75.2835L163.472 72.5414L166.853 74.5677L165.215 77.2624Z" fill="white"/>
<path d="M163.472 72.5414L166.853 74.5677L167.651 73.1928L164.18 71.14L163.472 72.5414Z" fill="#E2857E"/>
<path d="M192.592 18.3203C189.477 18.5873 188.691 26.0505 192.106 39.6701L179.089 44.3003L181.263 46.5197C181.263 46.5197 195.522 47.5916 197.74 42.6622C199.958 37.7328 198.336 17.8374 192.592 18.3203Z" fill="white"/>
<path d="M176.277 43.5181C174.361 43.5787 172.838 44.5919 172.876 45.7792C172.887 46.0398 172.968 46.2927 173.11 46.5121L179.347 46.6901C179.496 46.5407 179.614 46.3634 179.694 46.1684C179.774 45.9735 179.815 45.7646 179.814 45.5539C179.776 44.3703 178.192 43.4575 176.277 43.5181Z" fill="#D37B79"/>
<path d="M190.041 16.4721L205.8 10.2039C205.8 10.2039 209.271 19.0286 201.539 21.1609C193.844 23.2819 190.041 16.4721 190.041 16.4721Z" fill="#81C394"/>
<path d="M195.385 15.3492C197.664 15.4893 199.162 16.5687 200.628 20.858C202.716 26.7626 205.443 34.8715 204.046 55.3086L184.196 48.7052C186.11 38.695 185.97 19.6044 190.041 16.4683C191.501 15.8586 193.451 15.2299 195.385 15.3492Z" fill="#B2E2BF"/>
<path d="M196.086 19.0381C192.97 19.3032 192.184 26.7683 195.6 40.3879L184.884 43.9708L184.756 47.2337C184.756 47.2337 199.016 48.3056 201.234 43.3762C203.451 38.4468 201.83 18.5476 196.086 19.0381Z" fill="#81C394"/>
<path d="M179.77 44.236C177.854 44.2966 176.332 45.3097 176.37 46.4971C176.38 46.7579 176.461 47.011 176.603 47.23L182.841 47.408C182.99 47.2586 183.108 47.0813 183.188 46.8863C183.268 46.6913 183.309 46.4825 183.308 46.2718C183.266 45.0882 181.686 44.1754 179.77 44.236Z" fill="#E2857E"/>
<path d="M184.838 44.7965L182.058 45.5085L182.298 47.389L184.884 47.4686L184.838 44.7965Z" fill="#E2857E"/>
<path d="M168.177 47.7261H178.316L171.186 36.4906H161.049L168.177 47.7261Z" fill="#F4F4F4"/>
<path d="M174.898 47.726H188.125V47.0708L174.376 46.7507L174.898 47.726Z" fill="#F4F4F4"/>
<path d="M74.7 119.582L88.8987 113.24L91.3671 117.267C91.3671 117.267 80.7722 125.571 75.4177 125.829C70.0633 126.087 63.3741 111.535 74.7 119.582Z" fill="#2A3756"/>
<path d="M94.6462 109.338C94.8113 110.028 94.7901 110.749 94.5846 111.428C94.3791 112.106 93.9968 112.718 93.4766 113.202C92.2804 114.338 91.4487 114.434 91.4487 114.434L91.0861 112.187L94.6462 109.338Z" fill="#E2857E"/>
<path d="M92.1741 113.3L91.3671 112.84L89.5367 114.283L90.8355 116.402L92.8728 113.569L92.1741 113.3Z" fill="#E2857E"/>
<path d="M95.9544 107.821C95.9544 107.821 95.9544 107.81 95.9544 107.804C95.9553 107.799 95.9553 107.793 95.9544 107.787C95.9544 107.787 95.9544 107.787 95.9544 107.772L96.1329 108.005C96.1335 108.01 96.1335 108.014 96.1329 108.018C96.1329 108.018 96.1329 108.03 96.1329 108.037C96.1329 108.045 96.1329 108.047 96.1329 108.052V108.07V108.088C96.1329 108.088 96.1329 108.1 96.1215 108.107C96.1169 108.116 96.1112 108.125 96.1044 108.132L96.0949 108.143L95.9184 107.912L95.9279 107.901L95.9449 107.876L95.9563 107.856V107.839C95.9566 107.833 95.956 107.827 95.9544 107.821Z" fill="#313D52"/>
<path d="M89.419 112.855L89.5975 113.086C89.6027 113.092 89.6094 113.098 89.617 113.101C89.6246 113.104 89.6329 113.106 89.6412 113.105L89.4646 112.874C89.4475 112.874 89.4311 112.867 89.419 112.855Z" fill="#313D52"/>
<path d="M89.4646 112.874L89.6412 113.105L91.6386 113.224L91.462 112.993L89.4646 112.874Z" fill="#334056"/>
<path d="M91.7184 112.851L91.8949 113.082L96.0816 108.143L95.9051 107.912L91.7184 112.851Z" fill="#435471"/>
<path d="M93.9076 107.634C93.8574 107.64 93.8089 107.656 93.7649 107.68C93.7209 107.705 93.6823 107.738 93.6513 107.778L89.4684 112.713C89.3981 112.796 89.3981 112.866 89.4684 112.87L91.4658 112.989C91.5155 112.984 91.5636 112.968 91.6073 112.944C91.6509 112.919 91.6893 112.887 91.7203 112.847L95.9089 107.909C95.9791 107.825 95.9791 107.753 95.9089 107.75L93.9076 107.634Z" fill="#2A3756"/>
<path d="M91.4734 112.993H91.4981C91.5056 112.995 91.5134 112.995 91.5209 112.993H91.5418L91.5646 112.982L91.5893 112.97L91.6196 112.952C91.6557 112.928 91.6883 112.899 91.7165 112.866L91.8949 113.097C91.8664 113.13 91.8339 113.158 91.7981 113.183L91.7677 113.202L91.7431 113.215H91.7184H91.6975H91.6747H91.6386L91.462 112.984L91.4734 112.993Z" fill="#3E4E68"/>
<path d="M90.5393 110.878C90.5184 111.067 90.7538 111.257 91.0671 111.293C91.3804 111.329 91.6481 111.192 91.669 110.993C91.6899 110.795 91.4544 110.615 91.1412 110.577C90.8279 110.539 90.5601 110.679 90.5393 110.878Z" fill="#E2857E"/>
<path d="M75.7747 81.6142C78.0437 81.7544 80.8101 83.1027 80.2842 86.8049C79.9139 89.3993 79.05 93.8268 77.3184 93.8742C76.5589 93.895 73.9899 92.8137 73.9899 92.8137L73.4696 97.0064L68.7722 94.3741L70.9082 90.4371C70.9082 90.4371 68.2918 81.1522 75.7747 81.6142Z" fill="#E2857E"/>
<path d="M92.8044 181.16L82.6975 183.786L82.1278 180.175L86.1778 178.046L92.4038 179.397L92.8044 181.16Z" fill="#1C2942"/>
<path d="M79.8095 155.038C79.0633 151.498 77.2804 129.643 77.2804 129.643C77.2804 129.643 62.8804 122.415 61.969 127.766C61.969 127.766 73.5038 150.25 74.1817 152.237C74.8595 154.223 74.3962 158.443 77.119 165.199C78.4823 168.578 82.7336 179.866 82.7336 179.866L85.5323 178.385C85.5323 178.385 80.3355 157.532 79.8095 155.038Z" fill="#E2857E"/>
<path d="M61.2684 183.82L51.6342 179.8L53.3753 176.583L57.8886 177.338L62.0203 182.177L61.2684 183.82Z" fill="#1C2942"/>
<path d="M63.881 125.42C62.362 129.143 64.4317 136.445 63.5336 143.174C62.6355 149.902 62.5842 151.031 58.481 159.213C57.1633 161.846 54.1519 176.721 54.1519 176.721L57.1785 177.219C57.1785 177.219 64.4488 158.674 65.6184 156.551C67.3595 153.388 74.7893 132.167 74.7893 132.167C74.7893 132.167 65.4076 121.695 63.881 125.42Z" fill="#E2857E"/>
<path d="M70.6994 94.359C68.4456 94.4991 65.7626 95.2755 64.9139 100.718C63.7329 108.357 58.1715 153.598 58.1715 153.598L81.9323 156.217C81.9323 156.217 79.6291 113.925 76.1506 99.5837C75.1082 95.2907 72.6171 94.2397 70.6994 94.359Z" fill="#2A3756"/>
<path d="M70.3386 99.5895C73.3139 100.444 71.8899 105.286 65.9582 117.862L76.2532 130.692L72.7101 133.839C72.7101 133.839 62.8671 124.096 61.3975 118.962C60.393 115.438 64.8532 98.0177 70.3386 99.5895Z" fill="#2A3756"/>
<path d="M71.7551 80.1258C63.0399 83.116 61.5684 107.477 54.6836 109.17C67.7848 113.862 72.976 88.9733 72.976 88.9733C73.2076 88.6589 72.2506 87.3693 73.1374 86.4982C73.857 85.788 74.795 85.7842 75.0209 87.0133C75.0209 87.0133 77.869 83.1463 79.6899 83.3716C79.2399 80.8265 74.1437 79.0047 71.7551 80.1258Z" fill="#3B5277"/>
</svg>
