<svg viewBox="0 0 1267 270" fill="none" xmlns="http://www.w3.org/2000/svg">
<path d="M403.258 45.7769L418.147 60.6658L433.149 45.6642C435.182 43.6311 436.799 41.2214 437.907 38.5728C439.015 35.9241 439.593 33.0884 439.607 30.2275C439.622 27.3666 439.072 24.5366 437.991 21.899C436.909 19.2614 435.317 16.8679 433.304 14.8551L418.449 0.000168205L403.413 15.0361C399.316 19.1331 396.998 24.6735 396.969 30.4385C396.94 36.2035 399.202 41.7209 403.258 45.7769Z" fill="#8DCF9F"/>
<path d="M425.661 80.6695L425.661 103.338L448.275 103.338C451.34 103.338 454.375 102.735 457.206 101.562C460.038 100.389 462.611 98.6702 464.778 96.5033C466.945 94.3364 468.664 91.7639 469.837 88.9327C471.01 86.1015 471.614 83.0671 471.614 80.0026L471.614 57.3857L448.948 57.3857C442.772 57.3857 436.849 59.8389 432.482 64.2054C428.115 68.572 425.661 74.4943 425.661 80.6695Z" fill="#8DCF9F"/>
<path d="M364.391 80.0517L364.391 57.383L387.333 57.383C390.442 57.383 393.521 57.9866 396.394 59.1593C399.266 60.3321 401.876 62.051 404.075 64.2179C406.273 66.3848 408.017 68.9573 409.207 71.7885C410.397 74.6196 411.01 77.6541 411.01 80.7186L411.01 103.335L388.015 103.335C381.75 103.335 375.741 100.882 371.311 96.5158C366.88 92.1492 364.391 86.2269 364.391 80.0517Z" fill="#8DCF9F"/>
<path d="M101.605 121.988H67.2386V63.6558H34.3662V121.988H0V151.154H34.3662V261.969H67.2386V151.154H101.605V121.988Z" fill="#35476A"/>
<path d="M369.734 124.931C363.71 122.377 357.199 121.103 350.633 121.196C334.557 121.196 322.553 126.608 314.62 137.433C314.366 137.773 314.128 138.13 313.89 138.479V124.068H281.556V261.969H313.89V185.265C313.89 173.388 316.829 164.672 322.706 159.116C328.584 153.56 336.03 150.792 345.044 150.815C348.744 150.747 352.426 151.329 355.916 152.533C359.167 153.777 362.076 155.747 364.409 158.286L385.609 137.026C380.711 131.459 375.419 127.427 369.734 124.931Z" fill="#35476A"/>
<path d="M400.299 261.969V127.312H437.023V261.969H400.299Z" fill="#35476A"/>
<path d="M563.721 127.312L525.765 213.427L488.042 127.312H452.937L515.954 261.969H534.371L597.387 127.312H563.721Z" fill="#35476A"/>
<path d="M734.321 155.556C728.77 145.156 720.519 136.456 710.443 130.378C700.3 124.256 688.646 121.195 675.479 121.195C662.648 121.065 650.013 124.356 638.864 130.732C627.716 137.107 618.453 146.338 612.023 157.482C605.536 168.636 602.29 181.222 602.284 195.241C602.278 209.259 605.576 221.897 612.176 233.154C618.592 244.257 627.868 253.421 639.031 259.684C650.339 266.103 663.079 269.313 677.252 269.313C687.99 269.369 698.628 267.252 708.533 263.091C718.226 259.051 726.825 252.76 733.622 244.733L712.959 223.697C708.64 228.628 703.235 232.482 697.174 234.951C690.754 237.565 683.881 238.874 676.954 238.802C668.494 238.802 661.018 236.977 654.526 233.325C648.092 229.742 642.856 224.333 639.474 217.775C637.76 214.496 636.465 211.014 635.62 207.411H741.288C741.885 204.449 742.328 201.734 742.618 199.263C742.912 196.855 743.06 194.432 743.062 192.006C743.068 178.364 740.154 166.214 734.321 155.556ZM639.142 171.397C642.332 165.148 647.25 159.954 653.306 156.438C659.407 152.889 666.59 151.114 674.856 151.114C682.719 151.114 689.359 152.692 694.777 155.847C700.213 159.039 704.58 163.782 707.322 169.472C709.048 173.045 710.304 176.828 711.057 180.726H635.688C636.463 177.489 637.623 174.357 639.142 171.397Z" fill="#35476A"/>
<path d="M833.284 269.312C819.546 269.312 807.124 266.055 796.017 259.541C785.086 253.219 776.021 244.014 769.77 232.888C763.384 221.633 760.194 209.084 760.2 195.24C760.2 181.225 763.39 168.641 769.77 157.489C776.051 146.42 785.112 137.264 796.017 130.965C807.129 124.45 819.551 121.193 833.284 121.193C843.711 121.109 854.039 123.279 863.587 127.559C872.815 131.694 880.998 137.924 887.512 145.776L866.637 167.389C862.692 162.543 857.669 158.729 851.988 156.266C846.062 153.757 839.699 152.5 833.284 152.569C825.919 152.418 818.652 154.31 812.258 158.045C806.246 161.59 801.315 166.767 798.012 173.002C794.626 179.316 792.933 186.732 792.933 195.248C792.788 202.92 794.534 210.505 798.012 217.307C801.281 223.604 806.217 228.837 812.258 232.409C818.342 236.071 825.351 237.899 833.284 237.893C839.7 237.964 846.063 236.703 851.988 234.188C857.673 231.732 862.697 227.917 866.637 223.065L887.512 244.687C881 252.538 872.816 258.766 863.587 262.895C854.042 267.193 843.715 269.38 833.284 269.312Z" fill="#8DCF9F"/>
<path d="M971.835 269.308C958.816 269.473 945.997 266.045 934.751 259.392C923.803 252.929 914.697 243.695 908.323 232.594C901.752 221.179 898.368 208.165 898.535 194.948C898.535 181.139 901.798 168.705 908.323 157.645C914.76 146.665 923.857 137.535 934.751 131.121C945.996 124.465 958.815 121.034 971.835 121.196C985.657 121.196 998.117 124.453 1009.22 130.967C1020.15 137.326 1029.26 146.468 1035.64 157.491C1042.17 168.642 1045.43 181.125 1045.42 194.94C1045.59 208.156 1042.21 221.17 1035.64 232.586C1029.27 243.687 1020.16 252.92 1009.22 259.383C998.122 266 985.662 269.308 971.835 269.308ZM971.835 237.925C979.252 238.076 986.57 236.18 993.006 232.441C999.114 228.837 1004.09 223.55 1007.35 217.194C1010.82 210.317 1012.56 202.674 1012.41 194.948C1012.41 186.666 1010.66 179.365 1007.16 173.045C1003.78 166.857 998.826 161.695 992.82 158.09C986.779 154.439 979.77 152.614 971.793 152.614C964.474 152.488 957.258 154.38 950.918 158.09C944.865 161.634 939.899 166.811 936.573 173.045C933.164 179.36 931.46 186.661 931.46 194.948C931.32 202.679 933.077 210.323 936.573 217.194C939.833 223.552 944.808 228.839 950.918 232.441C957.271 236.155 964.503 238.042 971.835 237.899V237.925Z" fill="#8DCF9F"/>
<path d="M1088.27 99.0699C1085.83 99.1398 1083.4 98.6908 1081.13 97.7518C1078.87 96.8128 1076.83 95.4044 1075.13 93.617C1071.78 89.956 1069.91 85.1399 1069.91 80.138C1069.91 75.1362 1071.78 70.32 1075.13 66.6591C1076.83 64.8744 1078.88 63.4683 1081.14 62.5309C1083.4 61.5934 1085.83 61.1451 1088.27 61.2145C1093.71 61.2145 1098.14 63.0294 1101.54 66.6591C1104.82 70.3595 1106.64 75.1607 1106.64 80.138C1106.64 85.1153 1104.82 89.9166 1101.54 93.617C1098.16 97.2577 1093.73 99.0754 1088.27 99.0699ZM1072.76 261.969V124.304H1103.83V261.969H1072.76Z" fill="#8DCF9F"/>
<path d="M1260.1 149.495C1255.57 141.232 1249.06 134.224 1241.15 129.099C1233.11 123.836 1223.92 121.201 1213.58 121.196C1203.99 121.065 1194.53 123.495 1186.19 128.235C1181.01 131.198 1176.39 135.053 1172.55 139.625V124.068H1140.91V261.969H1172.51V182.393C1172.4 176.677 1173.79 171.033 1176.52 166.014C1179.13 161.303 1183.02 157.419 1187.73 154.808C1192.74 152.069 1198.39 150.684 1204.1 150.79C1213.29 150.79 1220.8 153.759 1226.64 159.697C1232.48 165.635 1235.4 173.201 1235.41 182.393V261.969H1267V175.511C1266.97 166.391 1264.6 157.431 1260.1 149.495Z" fill="#8DCF9F"/>
<path d="M241.524 145.477C237.034 137.374 230.414 130.67 222.387 126.098C214.271 121.43 204.994 119.096 194.554 119.096C184.856 118.956 175.296 121.422 166.863 126.241C161.633 129.252 156.97 133.165 153.088 137.801V63.6558H121.191V261.935H153.088V181.167C152.982 175.365 154.383 169.635 157.152 164.544C159.783 159.76 163.7 155.818 168.455 153.169C173.52 150.39 179.217 148.985 184.986 149.091C194.263 149.091 201.852 152.105 207.75 158.132C213.649 164.159 216.601 171.849 216.606 181.201V261.969H248.503V174.199C248.492 163.336 246.166 153.762 241.524 145.477Z" fill="#35476A"/>
</svg>
